<svg width="398" height="109" viewBox="0 0 398 109" fill="none" xmlns="http://www.w3.org/2000/svg">
<path d="M395.512 95.7845C395.512 101.507 390.458 106.143 384.208 106.143H14.2638C8.01592 106.143 2.94452 101.507 2.94452 95.7845V13.1809C2.94452 7.46083 8.01592 2.80908 14.2638 2.80908H384.205C390.458 2.80908 395.509 7.46083 395.509 13.1809L395.512 95.7845Z" fill="black"/>
<path d="M383.015 2.93406C389.822 2.93406 395.361 7.99127 395.361 14.2062V94.7457C395.361 100.961 389.822 106.018 383.015 106.018H15.442C8.63453 106.018 3.09521 100.961 3.09521 94.7457V14.2062C3.09521 7.99127 8.63453 2.93406 15.442 2.93406H383.015ZM383.015 0.78299H15.442C7.35906 0.78299 0.739075 6.82681 0.739075 14.2062V94.7457C0.739075 102.125 7.35906 108.169 15.442 108.169H383.015C391.097 108.169 397.717 102.125 397.717 94.7457V14.2062C397.717 6.82681 391.097 0.78299 383.015 0.78299Z" fill="#A6A6A6"/>
<path d="M89.3329 53.8958C89.2476 45.2432 97.0931 41.0336 97.4518 40.8376C93.0086 34.9234 86.1217 34.1153 83.7016 34.0509C77.9175 33.4951 72.3069 37.2107 69.3604 37.2107C66.3552 37.2107 61.8178 34.1045 56.9277 34.1958C50.6348 34.2844 44.7478 37.6107 41.519 42.776C34.8557 53.3078 39.8252 68.7848 46.2092 77.2979C49.4027 81.4671 53.1343 86.1223 58.0186 85.9585C62.7971 85.7787 64.582 83.1772 70.3485 83.1772C76.062 83.1772 77.7382 85.9585 82.7195 85.8538C87.8479 85.7787 91.0766 81.6658 94.1584 77.4589C97.8488 72.6803 99.3308 67.9741 99.3896 67.7325C99.2691 67.6949 89.4299 64.2666 89.3329 53.8958Z" fill="white"/>
<path d="M79.923 28.4507C82.4931 25.5164 84.2515 21.5243 83.7634 17.4731C80.0436 17.6235 75.3916 19.8222 72.7127 22.6921C70.3426 25.221 68.2254 29.3661 68.7723 33.2643C72.9509 33.5488 77.2412 31.3394 79.923 28.4507Z" fill="white"/>
<path d="M144.975 27.6532C144.975 30.813 143.937 33.1916 141.863 34.789C139.943 36.2628 137.214 37.0011 133.68 37.0011C131.927 37.0011 130.428 36.9313 129.172 36.7917V19.5267C130.81 19.2851 132.574 19.1616 134.48 19.1616C137.847 19.1616 140.384 19.8301 142.096 21.1671C144.013 22.6785 144.975 24.8397 144.975 27.6532ZM141.725 27.731C141.725 25.6826 141.131 24.1121 139.943 23.0168C138.755 21.9241 137.02 21.3765 134.735 21.3765C133.765 21.3765 132.939 21.4355 132.254 21.559V34.6843C132.633 34.738 133.327 34.7621 134.336 34.7621C136.694 34.7621 138.514 34.1634 139.796 32.9661C141.078 31.7687 141.725 30.0237 141.725 27.731Z" fill="white"/>
<path d="M162.204 30.4129C162.204 32.3592 161.595 33.9539 160.377 35.205C159.101 36.4909 157.41 37.1325 155.299 37.1325C153.264 37.1325 151.644 36.5178 150.435 35.2828C149.23 34.0506 148.627 32.4962 148.627 30.6223C148.627 28.6625 149.247 27.0544 150.494 25.806C151.741 24.5577 153.417 23.9321 155.528 23.9321C157.563 23.9321 159.198 24.5469 160.436 25.7792C161.612 26.9765 162.204 28.5229 162.204 30.4129ZM159.007 30.5041C159.007 29.3363 158.731 28.335 158.181 27.5C157.534 26.4906 156.613 25.9859 155.417 25.9859C154.179 25.9859 153.238 26.4906 152.591 27.5C152.038 28.335 151.764 29.3524 151.764 30.5552C151.764 31.723 152.041 32.7244 152.591 33.5593C153.258 34.5687 154.187 35.0734 155.387 35.0734C156.563 35.0734 157.487 34.5607 158.151 33.5324C158.722 32.6814 159.007 31.672 159.007 30.5041Z" fill="white"/>
<path d="M185.305 24.1899L180.967 36.8454H178.144L176.348 31.3499C175.892 29.978 175.521 28.6142 175.233 27.2612H175.177C174.91 28.6518 174.539 30.0129 174.063 31.3499L172.154 36.8454H169.299L165.22 24.1899H168.387L169.955 30.2062C170.334 31.6291 170.646 32.9849 170.896 34.2681H170.952C171.181 33.2104 171.56 31.8627 172.096 30.2331L174.063 24.1926H176.574L178.459 30.1042C178.915 31.5459 179.285 32.9338 179.57 34.2708H179.656C179.865 32.9687 180.179 31.5808 180.597 30.1042L182.279 24.1926H185.305V24.1899Z" fill="white"/>
<path d="M201.281 36.8455H198.199V29.597C198.199 27.3634 197.27 26.2465 195.406 26.2465C194.491 26.2465 193.753 26.5526 193.18 27.1674C192.612 27.7822 192.324 28.507 192.324 29.3366V36.8429H189.242V27.8063C189.242 26.6949 189.204 25.4895 189.13 24.1847H191.839L191.983 26.1633H192.068C192.427 25.5485 192.962 25.0411 193.665 24.6357C194.5 24.1633 195.435 23.9243 196.458 23.9243C197.752 23.9243 198.828 24.3055 199.684 25.0707C200.749 26.0076 201.281 27.4063 201.281 29.2641V36.8455V36.8455Z" fill="white"/>
<path d="M209.779 36.8456H206.7V18.3833H209.779V36.8456Z" fill="white"/>
<path d="M227.923 30.4129C227.923 32.3592 227.314 33.9539 226.097 35.205C224.82 36.4909 223.127 37.1325 221.018 37.1325C218.98 37.1325 217.36 36.5178 216.154 35.2828C214.949 34.0506 214.346 32.4962 214.346 30.6223C214.346 28.6625 214.966 27.0544 216.213 25.806C217.46 24.5577 219.136 23.9321 221.245 23.9321C223.282 23.9321 224.914 24.5469 226.155 25.7792C227.332 26.9765 227.923 28.5229 227.923 30.4129ZM224.723 30.5041C224.723 29.3363 224.447 28.335 223.897 27.5C223.253 26.4906 222.33 25.9859 221.136 25.9859C219.895 25.9859 218.954 26.4906 218.31 27.5C217.757 28.335 217.484 29.3524 217.484 30.5552C217.484 31.723 217.76 32.7244 218.31 33.5593C218.977 34.5687 219.907 35.0734 221.106 35.0734C222.283 35.0734 223.203 34.5607 223.868 33.5324C224.441 32.6814 224.723 31.672 224.723 30.5041Z" fill="white"/>
<path d="M242.837 36.8453H240.07L239.841 35.3875H239.755C238.808 36.55 237.459 37.1325 235.706 37.1325C234.398 37.1325 233.339 36.7486 232.542 35.9862C231.819 35.2936 231.457 34.4318 231.457 33.4089C231.457 31.8626 232.163 30.684 233.583 29.8679C235 29.0518 236.994 28.6517 239.561 28.6705V28.4343C239.561 26.7671 238.603 25.9349 236.682 25.9349C235.315 25.9349 234.109 26.249 233.068 26.8718L232.442 25.0248C233.73 24.2972 235.321 23.9321 237.197 23.9321C240.82 23.9321 242.637 25.6772 242.637 29.1672V33.8277C242.637 35.0922 242.705 36.099 242.837 36.8453ZM239.638 32.4962V30.5444C236.238 30.4907 234.539 31.3418 234.539 33.0948C234.539 33.7553 234.733 34.2492 235.13 34.5794C235.527 34.9097 236.033 35.0734 236.635 35.0734C237.312 35.0734 237.944 34.8774 238.52 34.4882C239.1 34.0962 239.455 33.5995 239.588 32.9901C239.62 32.8532 239.638 32.6868 239.638 32.4962Z" fill="white"/>
<path d="M260.348 36.8456H257.614L257.469 34.8134H257.384C256.511 36.3597 255.023 37.1329 252.932 37.1329C251.262 37.1329 249.871 36.5342 248.768 35.3369C247.666 34.1395 247.116 32.5851 247.116 30.6763C247.116 28.6279 247.713 26.9688 248.912 25.7017C250.074 24.5204 251.497 23.9298 253.191 23.9298C255.052 23.9298 256.355 24.5016 257.096 25.648H257.155V18.3833H260.24V33.4361C260.24 34.6684 260.275 35.804 260.348 36.8456ZM257.155 31.5085V29.3984C257.155 29.0333 257.125 28.738 257.07 28.5125C256.896 27.836 256.523 27.2668 255.955 26.8077C255.382 26.3487 254.691 26.1178 253.894 26.1178C252.744 26.1178 251.844 26.5339 251.183 27.3688C250.527 28.2037 250.194 29.2696 250.194 30.5716C250.194 31.8227 250.509 32.8375 251.141 33.6187C251.809 34.4509 252.709 34.867 253.835 34.867C254.846 34.867 255.655 34.5207 256.27 33.8254C256.864 33.1838 257.155 32.4106 257.155 31.5085Z" fill="white"/>
<path d="M286.705 30.4129C286.705 32.3592 286.096 33.9539 284.879 35.205C283.602 36.4909 281.915 37.1325 279.8 37.1325C277.768 37.1325 276.148 36.5178 274.937 35.2828C273.731 34.0506 273.128 32.4962 273.128 30.6223C273.128 28.6625 273.749 27.0544 274.995 25.806C276.242 24.5577 277.918 23.9321 280.033 23.9321C282.064 23.9321 283.702 24.5469 284.937 25.7792C286.114 26.9765 286.705 28.5229 286.705 30.4129ZM283.511 30.5041C283.511 29.3363 283.235 28.335 282.685 27.5C282.035 26.4906 281.118 25.9859 279.918 25.9859C278.683 25.9859 277.742 26.4906 277.092 27.5C276.539 28.335 276.266 29.3524 276.266 30.5552C276.266 31.723 276.542 32.7244 277.092 33.5593C277.759 34.5687 278.689 35.0734 279.888 35.0734C281.065 35.0734 281.991 34.5607 282.656 33.5324C283.223 32.6814 283.511 31.672 283.511 30.5041Z" fill="white"/>
<path d="M303.275 36.8455H300.196V29.597C300.196 27.3634 299.267 26.2465 297.4 26.2465C296.485 26.2465 295.747 26.5526 295.176 27.1674C294.606 27.7822 294.321 28.507 294.321 29.3366V36.8429H291.236V27.8063C291.236 26.6949 291.201 25.4895 291.127 24.1847H293.833L293.977 26.1633H294.062C294.424 25.5485 294.959 25.0411 295.659 24.6357C296.497 24.1633 297.429 23.9243 298.455 23.9243C299.746 23.9243 300.822 24.3055 301.678 25.0707C302.746 26.0076 303.275 27.4063 303.275 29.2641V36.8455V36.8455Z" fill="white"/>
<path d="M324.015 26.2978H320.621V32.4456C320.621 34.0081 321.224 34.7893 322.418 34.7893C322.971 34.7893 323.43 34.7464 323.791 34.6578L323.871 36.7921C323.262 37.0015 322.462 37.1062 321.477 37.1062C320.26 37.1062 319.313 36.7679 318.628 36.0914C317.94 35.4149 317.599 34.2766 317.599 32.6792V26.2978H315.573V24.1904H317.599V21.8708L320.619 21.0386V24.1877H324.012V26.2978H324.015Z" fill="white"/>
<path d="M340.329 36.8456H337.244V29.6508C337.244 27.3822 336.315 26.2466 334.454 26.2466C333.025 26.2466 332.048 26.9044 331.513 28.2199C331.422 28.4964 331.369 28.8346 331.369 29.232V36.8429H328.29V18.3833H331.369V26.0104H331.428C332.398 24.6224 333.789 23.9298 335.592 23.9298C336.868 23.9298 337.924 24.311 338.762 25.0761C339.806 26.0292 340.329 27.4467 340.329 29.3206V36.8456V36.8456Z" fill="white"/>
<path d="M357.158 29.9191C357.158 30.4238 357.117 30.848 357.043 31.1943H347.801C347.842 32.4454 348.283 33.3984 349.139 34.0589C349.921 34.6495 350.93 34.9448 352.165 34.9448C353.532 34.9448 354.779 34.7461 355.902 34.3461L356.385 36.3005C355.07 36.8214 353.524 37.0818 351.733 37.0818C349.586 37.0818 347.895 36.5046 346.672 35.3502C345.443 34.1958 344.834 32.6467 344.834 30.7031C344.834 28.7943 345.402 27.205 346.546 25.9378C347.739 24.5847 349.354 23.9082 351.392 23.9082C353.385 23.9082 354.9 24.5847 355.923 25.9378C356.749 27.0117 357.158 28.3406 357.158 29.9191ZM354.218 29.1916C354.241 28.3567 354.038 27.6372 353.621 27.0305C353.085 26.2492 352.271 25.8573 351.168 25.8573C350.162 25.8573 349.342 26.2385 348.716 27.0036C348.204 27.613 347.901 28.3406 347.801 29.1916H354.218Z" fill="white"/>
<path d="M158.487 85.3596H151.808L148.15 74.8653H135.435L131.951 85.3596H125.449L138.047 49.6323H145.827L158.487 85.3596ZM147.048 70.4625L143.74 61.1334C143.39 60.1803 142.734 57.9359 141.766 54.4029H141.649C141.264 55.9225 140.643 58.1668 139.79 61.1334L136.541 70.4625H147.048V70.4625Z" fill="white"/>
<path d="M190.883 72.1624C190.883 76.5437 189.586 80.0069 186.992 82.5493C184.669 84.8124 181.785 85.9427 178.341 85.9427C174.624 85.9427 171.954 84.7238 170.328 82.2862H170.21V95.8571H163.941V68.079C163.941 65.3246 163.862 62.4976 163.709 59.5982H169.222L169.572 63.6816H169.69C171.781 60.605 174.954 59.0693 179.212 59.0693C182.54 59.0693 185.319 60.2694 187.542 62.6721C189.771 65.0776 190.883 68.2401 190.883 72.1624ZM184.496 72.3718C184.496 69.8643 183.878 67.7971 182.637 66.1702C181.282 64.4735 179.462 63.6252 177.18 63.6252C175.633 63.6252 174.227 64.0977 172.972 65.0293C171.713 65.9689 170.89 67.1958 170.505 68.7153C170.31 69.424 170.213 70.0039 170.213 70.4603V74.7557C170.213 76.6296 170.843 78.2109 172.101 79.5022C173.36 80.7935 174.995 81.4378 177.006 81.4378C179.367 81.4378 181.205 80.6056 182.52 78.9465C183.837 77.2847 184.496 75.094 184.496 72.3718Z" fill="white"/>
<path d="M223.338 72.1624C223.338 76.5437 222.041 80.0069 219.445 82.5493C217.125 84.8124 214.24 85.9427 210.796 85.9427C207.08 85.9427 204.41 84.7238 202.786 82.2862H202.669V95.8571H196.399V68.079C196.399 65.3246 196.32 62.4976 196.167 59.5982H201.681L202.031 63.6816H202.148C204.236 60.605 207.409 59.0693 211.67 59.0693C214.996 59.0693 217.775 60.2694 220.003 62.6721C222.224 65.0776 223.338 68.2401 223.338 72.1624ZM216.951 72.3718C216.951 69.8643 216.331 67.7971 215.09 66.1702C213.734 64.4735 211.92 63.6252 209.635 63.6252C208.085 63.6252 206.683 64.0977 205.424 65.0293C204.166 65.9689 203.345 67.1958 202.96 68.7153C202.769 69.424 202.669 70.0039 202.669 70.4603V74.7557C202.669 76.6296 203.298 78.2109 204.551 79.5022C205.809 80.7908 207.444 81.4378 209.461 81.4378C211.823 81.4378 213.661 80.6056 214.975 78.9465C216.292 77.2847 216.951 75.094 216.951 72.3718Z" fill="white"/>
<path d="M259.625 75.3411C259.625 78.3801 258.469 80.8527 256.149 82.7615C253.6 84.8474 250.05 85.8891 245.489 85.8891C241.279 85.8891 237.903 85.1481 235.347 83.6635L236.8 78.8929C239.552 80.4124 242.572 81.1748 245.863 81.1748C248.224 81.1748 250.062 80.6862 251.382 79.7144C252.697 78.7425 253.353 77.4378 253.353 75.8109C253.353 74.3612 252.812 73.1397 251.726 72.149C250.647 71.1584 248.845 70.2376 246.328 69.3865C239.476 67.0536 236.053 63.636 236.053 59.1419C236.053 56.2049 237.253 53.7968 239.655 51.9229C242.049 50.0463 245.242 49.1094 249.236 49.1094C252.797 49.1094 255.755 49.6758 258.116 50.8061L256.549 55.472C254.344 54.3767 251.85 53.829 249.059 53.829C246.854 53.829 245.131 54.3257 243.896 55.3136C242.852 56.1969 242.328 57.2734 242.328 58.5486C242.328 59.9607 242.925 61.1286 244.125 62.0467C245.169 62.8951 247.066 63.8132 249.818 64.8038C253.185 66.0415 255.658 67.4885 257.249 69.1476C258.834 70.8013 259.625 72.8712 259.625 75.3411Z" fill="white"/>
<path d="M280.353 63.8936H273.443V76.4014C273.443 79.5827 274.66 81.172 277.101 81.172C278.221 81.172 279.15 81.0834 279.885 80.9063L280.059 85.2527C278.824 85.6742 277.198 85.8863 275.183 85.8863C272.707 85.8863 270.773 85.1963 269.376 83.8191C267.985 82.4392 267.285 80.125 267.285 76.8739V63.8883H263.168V59.5928H267.285V54.8759L273.443 53.1792V59.5928H280.353V63.8936Z" fill="white"/>
<path d="M311.532 72.2673C311.532 76.2272 310.291 79.4783 307.815 82.0206C305.219 84.6382 301.772 85.9429 297.476 85.9429C293.336 85.9429 290.039 84.6892 287.581 82.1817C285.123 79.6743 283.893 76.5091 283.893 72.6942C283.893 68.7021 285.158 65.4322 287.696 62.8898C290.227 60.3448 293.644 59.0723 297.941 59.0723C302.081 59.0723 305.413 60.326 307.927 62.8361C310.332 65.2711 311.532 68.4148 311.532 72.2673ZM305.027 72.4526C305.027 70.0766 304.472 68.039 303.345 66.3396C302.031 64.2832 300.152 63.2576 297.717 63.2576C295.197 63.2576 293.283 64.2859 291.968 66.3396C290.842 68.0417 290.286 70.1115 290.286 72.5599C290.286 74.9359 290.842 76.9735 291.968 78.6702C293.324 80.7266 295.218 81.7522 297.661 81.7522C300.055 81.7522 301.934 80.7052 303.289 78.6165C304.445 76.8849 305.027 74.8258 305.027 72.4526Z" fill="white"/>
<path d="M331.91 64.6319C331.29 64.5272 330.628 64.4735 329.934 64.4735C327.729 64.4735 326.023 65.2333 324.823 66.7555C323.779 68.0978 323.256 69.7945 323.256 71.8429V85.3601H316.99L317.048 67.7112C317.048 64.742 316.969 62.0386 316.813 59.6009H322.274L322.503 64.5299H322.677C323.338 62.8359 324.382 61.4721 325.811 60.4492C327.208 59.5284 328.717 59.0693 330.343 59.0693C330.922 59.0693 331.446 59.1069 331.91 59.174V64.6319Z" fill="white"/>
<path d="M359.949 71.2598C359.949 72.2854 359.875 73.1498 359.719 73.8559H340.911C340.985 76.4009 341.893 78.3473 343.64 79.6896C345.225 80.8897 347.275 81.491 349.792 81.491C352.577 81.491 355.117 81.0856 357.402 80.2722L358.384 84.2455C355.714 85.3086 352.562 85.8375 348.924 85.8375C344.549 85.8375 341.114 84.6616 338.615 82.3125C336.121 79.9635 334.871 76.809 334.871 72.8518C334.871 68.9671 336.033 65.7321 338.359 63.1522C340.794 60.3977 344.084 59.0205 348.225 59.0205C352.291 59.0205 355.37 60.3977 357.461 63.1522C359.116 65.3402 359.949 68.0463 359.949 71.2598ZM353.97 69.7752C354.012 68.0785 353.603 66.6127 352.753 65.3751C351.668 63.7831 350.001 62.9884 347.757 62.9884C345.707 62.9884 344.04 63.7643 342.767 65.3214C341.723 66.559 341.102 68.0436 340.911 69.7725H353.97V69.7752Z" fill="white"/>
</svg>
