<svg width="308" height="85" viewBox="0 0 308 85" fill="none" xmlns="http://www.w3.org/2000/svg">
<path d="M306.005 74.5032C306.005 78.934 302.092 82.523 297.252 82.523H10.8256C5.98827 82.523 2.06177 78.934 2.06177 74.5032V10.5479C2.06177 6.11916 5.98827 2.51758 10.8256 2.51758H297.25C302.092 2.51758 306.002 6.11916 306.002 10.5479L306.005 74.5032Z" fill="black"/>
<path d="M296.329 2.61437C301.599 2.61437 305.888 6.52988 305.888 11.3418V73.6989C305.888 78.5108 301.599 82.4263 296.329 82.4263H11.7379C6.46726 82.4263 2.17847 78.5108 2.17847 73.6989V11.3418C2.17847 6.52988 6.46726 2.61437 11.7379 2.61437H296.329ZM296.329 0.948921H11.7379C5.47973 0.948921 0.354248 5.6283 0.354248 11.3418V73.6989C0.354248 79.4124 5.47973 84.0918 11.7379 84.0918H296.329C302.587 84.0918 307.712 79.4124 307.712 73.6989V11.3418C307.712 5.6283 302.587 0.948921 296.329 0.948921Z" fill="#A6A6A6"/>
<path d="M68.9476 42.0711C68.8815 35.3718 74.9558 32.1126 75.2336 31.9609C71.7935 27.3818 66.4614 26.7562 64.5876 26.7063C60.1093 26.276 55.7653 29.1528 53.484 29.1528C51.1572 29.1528 47.6442 26.7478 43.858 26.8185C38.9858 26.8871 34.4278 29.4625 31.928 33.4616C26.7689 41.6159 30.6166 53.5988 35.5594 60.19C38.0319 63.418 40.9211 67.0223 44.7027 66.8955C48.4024 66.7562 49.7844 64.7421 54.249 64.7421C58.6727 64.7421 59.9704 66.8955 63.8272 66.8144C67.7978 66.7562 70.2976 63.5718 72.6837 60.3147C75.5409 56.6148 76.6884 52.9711 76.734 52.784C76.6406 52.7549 69.0227 50.1006 68.9476 42.0711Z" fill="white"/>
<path d="M61.662 22.3704C63.6519 20.0985 65.0134 17.0077 64.6354 13.8711C61.7554 13.9875 58.1536 15.6898 56.0795 17.9118C54.2445 19.8699 52.6052 23.0792 53.0287 26.0973C56.2639 26.3176 59.5857 24.6069 61.662 22.3704Z" fill="white"/>
<path d="M112.028 21.7532C112.028 24.1997 111.224 26.0413 109.619 27.2781C108.132 28.4192 106.019 28.9908 103.283 28.9908C101.926 28.9908 100.765 28.9368 99.7925 28.8287V15.4614C101.061 15.2743 102.427 15.1787 103.902 15.1787C106.509 15.1787 108.474 15.6963 109.799 16.7314C111.283 17.9016 112.028 19.5749 112.028 21.7532ZM109.512 21.8135C109.512 20.2276 109.052 19.0116 108.132 18.1635C107.212 17.3176 105.869 16.8935 104.1 16.8935C103.349 16.8935 102.709 16.9393 102.178 17.0349V27.197C102.472 27.2386 103.009 27.2573 103.79 27.2573C105.616 27.2573 107.026 26.7938 108.018 25.8667C109.011 24.9397 109.512 23.5886 109.512 21.8135Z" fill="white"/>
<path d="M125.367 23.8897C125.367 25.3967 124.896 26.6314 123.953 27.6C122.965 28.5956 121.656 29.0924 120.021 29.0924C118.446 29.0924 117.191 28.6164 116.255 27.6603C115.322 26.7062 114.855 25.5027 114.855 24.0519C114.855 22.5345 115.336 21.2894 116.301 20.3229C117.266 19.3564 118.564 18.8721 120.199 18.8721C121.774 18.8721 123.04 19.3481 123.999 20.3021C124.909 21.2292 125.367 22.4264 125.367 23.8897ZM122.892 23.9604C122.892 23.0562 122.678 22.2809 122.252 21.6345C121.751 20.8529 121.039 20.4622 120.112 20.4622C119.154 20.4622 118.425 20.8529 117.924 21.6345C117.496 22.2809 117.284 23.0687 117.284 23.9999C117.284 24.9041 117.499 25.6794 117.924 26.3258C118.441 27.1074 119.161 27.4981 120.089 27.4981C121 27.4981 121.715 27.1011 122.23 26.305C122.671 25.6461 122.892 24.8646 122.892 23.9604Z" fill="white"/>
<path d="M143.253 19.0718L139.895 28.8702H137.709L136.318 24.6153C135.965 23.5532 135.678 22.4973 135.455 21.4497H135.412C135.205 22.5264 134.918 23.5802 134.549 24.6153L133.071 28.8702H130.861L127.703 19.0718H130.155L131.368 23.7299C131.662 24.8315 131.903 25.8812 132.097 26.8747H132.14C132.318 26.0558 132.611 25.0123 133.026 23.7506L134.549 19.0739H136.493L137.953 23.6509C138.306 24.7671 138.592 25.8417 138.813 26.8768H138.879C139.041 25.8687 139.285 24.7941 139.608 23.6509L140.91 19.0739H143.253V19.0718Z" fill="white"/>
<path d="M155.622 28.8704H153.236V23.2582C153.236 21.5289 152.517 20.6642 151.073 20.6642C150.365 20.6642 149.794 20.9011 149.35 21.3771C148.91 21.8531 148.687 22.4143 148.687 23.0566V28.8683H146.301V21.8718C146.301 21.0113 146.272 20.078 146.215 19.0678H148.312L148.423 20.5997H148.489C148.767 20.1237 149.181 19.7309 149.726 19.417C150.372 19.0512 151.096 18.8662 151.888 18.8662C152.89 18.8662 153.723 19.1614 154.386 19.7538C155.21 20.4792 155.622 21.5621 155.622 23.0005V28.8704Z" fill="white"/>
<path d="M162.202 28.87H159.818V14.5757H162.202V28.87Z" fill="white"/>
<path d="M176.249 23.8897C176.249 25.3967 175.778 26.6314 174.836 27.6C173.847 28.5956 172.536 29.0924 170.904 29.0924C169.326 29.0924 168.071 28.6164 167.138 27.6603C166.205 26.7062 165.738 25.5027 165.738 24.0519C165.738 22.5345 166.218 21.2894 167.184 20.3229C168.149 19.3564 169.447 18.8721 171.079 18.8721C172.657 18.8721 173.92 19.3481 174.881 20.3021C175.792 21.2292 176.249 22.4264 176.249 23.8897ZM173.772 23.9604C173.772 23.0562 173.558 22.2809 173.133 21.6345C172.634 20.8529 171.919 20.4622 170.995 20.4622C170.034 20.4622 169.305 20.8529 168.807 21.6345C168.379 22.2809 168.167 23.0687 168.167 23.9999C168.167 24.9041 168.381 25.6794 168.807 26.3258C169.324 27.1074 170.043 27.4981 170.972 27.4981C171.883 27.4981 172.595 27.1011 173.11 26.305C173.554 25.6461 173.772 24.8646 173.772 23.9604Z" fill="white"/>
<path d="M187.797 28.87H185.655L185.477 27.7413H185.411C184.678 28.6414 183.633 29.0924 182.276 29.0924C181.263 29.0924 180.443 28.7952 179.826 28.2049C179.266 27.6686 178.986 27.0014 178.986 26.2094C178.986 25.0122 179.532 24.0997 180.632 23.4678C181.73 22.8359 183.273 22.5262 185.261 22.5407V22.3578C185.261 21.067 184.519 20.4227 183.032 20.4227C181.973 20.4227 181.04 20.6659 180.234 21.1481L179.749 19.718C180.746 19.1548 181.978 18.8721 183.43 18.8721C186.235 18.8721 187.642 20.2231 187.642 22.9253V26.5337C187.642 27.5127 187.695 28.2922 187.797 28.87ZM185.32 25.5027V23.9916C182.688 23.95 181.372 24.6089 181.372 25.9662C181.372 26.4776 181.522 26.86 181.83 27.1157C182.137 27.3713 182.529 27.4981 182.995 27.4981C183.519 27.4981 184.009 27.3464 184.455 27.045C184.903 26.7415 185.179 26.357 185.281 25.8852C185.306 25.7792 185.32 25.6503 185.32 25.5027Z" fill="white"/>
<path d="M201.355 28.87H199.238L199.126 27.2965H199.06C198.384 28.4938 197.232 29.0924 195.613 29.0924C194.32 29.0924 193.243 28.6289 192.389 27.7019C191.535 26.7748 191.11 25.5713 191.11 24.0935C191.11 22.5075 191.572 21.223 192.501 20.2419C193.4 19.3273 194.502 18.87 195.813 18.87C197.254 18.87 198.263 19.3127 198.837 20.2003H198.882V14.5757H201.271V26.2302C201.271 27.1843 201.298 28.0635 201.355 28.87ZM198.882 24.7378V23.1041C198.882 22.8214 198.86 22.5927 198.816 22.4181C198.682 21.8943 198.393 21.4537 197.953 21.0982C197.509 20.7428 196.974 20.5641 196.357 20.5641C195.467 20.5641 194.771 20.8862 194.258 21.5327C193.751 22.1791 193.493 23.0043 193.493 24.0124C193.493 24.981 193.737 25.7667 194.226 26.3716C194.743 27.0159 195.44 27.3381 196.312 27.3381C197.095 27.3381 197.721 27.07 198.197 26.5316C198.657 26.0349 198.882 25.4362 198.882 24.7378Z" fill="white"/>
<path d="M221.761 23.8897C221.761 25.3967 221.29 26.6314 220.347 27.6C219.359 28.5956 218.052 29.0924 216.415 29.0924C214.842 29.0924 213.588 28.6164 212.65 27.6603C211.716 26.7062 211.25 25.5027 211.25 24.0519C211.25 22.5345 211.73 21.2894 212.695 20.3229C213.661 19.3564 214.958 18.8721 216.595 18.8721C218.168 18.8721 219.437 19.3481 220.393 20.3021C221.304 21.2292 221.761 22.4264 221.761 23.8897ZM219.289 23.9604C219.289 23.0562 219.075 22.2809 218.649 21.6345C218.146 20.8529 217.435 20.4622 216.506 20.4622C215.55 20.4622 214.822 20.8529 214.319 21.6345C213.891 22.2809 213.679 23.0687 213.679 23.9999C213.679 24.9041 213.893 25.6794 214.319 26.3258C214.835 27.1074 215.555 27.4981 216.484 27.4981C217.394 27.4981 218.112 27.1011 218.626 26.305C219.066 25.6461 219.289 24.8646 219.289 23.9604Z" fill="white"/>
<path d="M234.591 28.8704H232.207V23.2582C232.207 21.5289 231.488 20.6642 230.042 20.6642C229.334 20.6642 228.762 20.9011 228.321 21.3771C227.879 21.8531 227.658 22.4143 227.658 23.0566V28.8683H225.27V21.8718C225.27 21.0113 225.242 20.078 225.186 19.0678H227.28L227.392 20.5997H227.458C227.738 20.1237 228.152 19.7309 228.694 19.417C229.343 19.0512 230.065 18.8662 230.859 18.8662C231.859 18.8662 232.692 19.1614 233.354 19.7538C234.181 20.4792 234.591 21.5621 234.591 23.0005V28.8704Z" fill="white"/>
<path d="M250.648 20.7033H248.021V25.4632C248.021 26.6729 248.488 27.2778 249.412 27.2778C249.84 27.2778 250.195 27.2445 250.475 27.1759L250.537 28.8284C250.065 28.9905 249.446 29.0716 248.683 29.0716C247.741 29.0716 247.008 28.8097 246.477 28.2859C245.945 27.7621 245.68 26.8808 245.68 25.644V20.7033H244.112V19.0716H245.68V17.2757L248.019 16.6313V19.0695H250.646V20.7033H250.648Z" fill="white"/>
<path d="M263.28 28.87H260.891V23.2995C260.891 21.5431 260.172 20.6638 258.731 20.6638C257.624 20.6638 256.868 21.1731 256.454 22.1916C256.383 22.4057 256.342 22.6676 256.342 22.9752V28.8679H253.959V14.5757H256.342V20.4809H256.388C257.139 19.4063 258.216 18.87 259.612 18.87C260.6 18.87 261.417 19.1652 262.066 19.7576C262.874 20.4955 263.28 21.5929 263.28 23.0438V28.87Z" fill="white"/>
<path d="M276.309 23.5074C276.309 23.8982 276.277 24.2266 276.221 24.4948H269.065C269.097 25.4634 269.438 26.2013 270.101 26.7126C270.706 27.1699 271.487 27.3985 272.443 27.3985C273.502 27.3985 274.467 27.2447 275.337 26.935L275.711 28.4482C274.693 28.8514 273.495 29.0531 272.109 29.0531C270.447 29.0531 269.138 28.6062 268.191 27.7124C267.239 26.8186 266.768 25.6193 266.768 24.1144C266.768 22.6365 267.207 21.406 268.093 20.4249C269.017 19.3773 270.267 18.8535 271.845 18.8535C273.388 18.8535 274.561 19.3773 275.353 20.4249C275.993 21.2563 276.309 22.2852 276.309 23.5074ZM274.033 22.9441C274.051 22.2977 273.894 21.7407 273.57 21.2709C273.156 20.666 272.525 20.3626 271.672 20.3626C270.893 20.3626 270.258 20.6577 269.773 21.2501C269.377 21.7219 269.142 22.2852 269.065 22.9441H274.033Z" fill="white"/>
<path d="M122.489 66.4321H117.319L114.486 58.307H104.642L101.944 66.4321H96.9102L106.664 38.7705H112.688L122.489 66.4321ZM113.633 54.8981L111.071 47.6751C110.8 46.9372 110.293 45.1995 109.544 42.4641H109.453C109.154 43.6406 108.674 45.3783 108.014 47.6751L105.498 54.8981H113.633Z" fill="white"/>
<path d="M147.572 56.2139C147.572 59.6061 146.568 62.2874 144.56 64.2558C142.761 66.0081 140.528 66.8832 137.862 66.8832C134.984 66.8832 132.917 65.9395 131.658 64.0521H131.567V74.5593H126.713V53.0523C126.713 50.9197 126.651 48.731 126.533 46.4861H130.802L131.073 49.6476H131.164C132.782 47.2656 135.239 46.0767 138.536 46.0767C141.113 46.0767 143.264 47.0058 144.986 48.8661C146.711 50.7285 147.572 53.1771 147.572 56.2139ZM142.627 56.376C142.627 54.4346 142.149 52.8341 141.188 51.5745C140.138 50.2608 138.729 49.604 136.962 49.604C135.765 49.604 134.677 49.9698 133.704 50.6911C132.73 51.4186 132.092 52.3685 131.794 53.545C131.644 54.0937 131.569 54.5427 131.569 54.896V58.2218C131.569 59.6726 132.056 60.8969 133.03 61.8967C134.005 62.8965 135.271 63.3953 136.828 63.3953C138.656 63.3953 140.079 62.751 141.097 61.4664C142.117 60.1798 142.627 58.4837 142.627 56.376Z" fill="white"/>
<path d="M172.7 56.2139C172.7 59.6061 171.696 62.2874 169.686 64.2558C167.889 66.0081 165.656 66.8832 162.99 66.8832C160.112 66.8832 158.045 65.9395 156.788 64.0521H156.697V74.5593H151.843V53.0523C151.843 50.9197 151.781 48.731 151.663 46.4861H155.932L156.203 49.6476H156.294C157.91 47.2656 160.367 46.0767 163.666 46.0767C166.241 46.0767 168.392 47.0058 170.118 48.8661C171.837 50.7285 172.7 53.1771 172.7 56.2139ZM167.755 56.376C167.755 54.4346 167.275 52.8341 166.314 51.5745C165.264 50.2608 163.86 49.604 162.09 49.604C160.891 49.604 159.805 49.9698 158.83 50.6911C157.856 51.4186 157.221 52.3685 156.922 53.545C156.774 54.0937 156.697 54.5427 156.697 54.896V58.2218C156.697 59.6726 157.184 60.8969 158.154 61.8967C159.128 62.8944 160.394 63.3953 161.956 63.3953C163.784 63.3953 165.207 62.751 166.225 61.4664C167.245 60.1798 167.755 58.4837 167.755 56.376Z" fill="white"/>
<path d="M200.795 58.675C200.795 61.0279 199.9 62.9423 198.104 64.4201C196.13 66.0352 193.382 66.8417 189.851 66.8417C186.59 66.8417 183.977 66.268 181.998 65.1185L183.123 61.4249C185.254 62.6014 187.592 63.1917 190.14 63.1917C191.968 63.1917 193.391 62.8134 194.413 62.061C195.431 61.3085 195.939 60.2983 195.939 59.0387C195.939 57.9163 195.52 56.9705 194.68 56.2035C193.844 55.4366 192.448 54.7236 190.5 54.0647C185.195 52.2584 182.545 49.6124 182.545 46.1329C182.545 43.8589 183.474 41.9944 185.334 40.5436C187.187 39.0907 189.659 38.3652 192.751 38.3652C195.508 38.3652 197.799 38.8038 199.627 39.6789L198.413 43.2915C196.706 42.4434 194.775 42.0194 192.615 42.0194C190.907 42.0194 189.573 42.4039 188.617 43.1688C187.809 43.8527 187.403 44.6862 187.403 45.6735C187.403 46.7668 187.865 47.671 188.794 48.3819C189.603 49.0387 191.071 49.7496 193.202 50.5166C195.809 51.4748 197.724 52.5951 198.955 53.8797C200.183 55.1601 200.795 56.7627 200.795 58.675Z" fill="white"/>
<path d="M216.843 49.8117H211.493V59.4958C211.493 61.9589 212.436 63.1894 214.325 63.1894C215.193 63.1894 215.912 63.1208 216.482 62.9836L216.616 66.3488C215.66 66.6752 214.401 66.8394 212.841 66.8394C210.924 66.8394 209.426 66.3052 208.344 65.2389C207.268 64.1705 206.726 62.3787 206.726 59.8616V49.8075H203.538V46.4818H206.726V42.8298L211.493 41.5161V46.4818H216.843V49.8117Z" fill="white"/>
<path d="M240.984 56.2953C240.984 59.3612 240.023 61.8783 238.106 63.8467C236.096 65.8733 233.427 66.8835 230.101 66.8835C226.895 66.8835 224.343 65.9128 222.44 63.9714C220.536 62.0301 219.585 59.5794 219.585 56.6258C219.585 53.5349 220.564 51.0032 222.529 49.0348C224.489 47.0643 227.134 46.0791 230.461 46.0791C233.666 46.0791 236.246 47.0498 238.192 48.9933C240.055 50.8785 240.984 53.3125 240.984 56.2953ZM235.948 56.4387C235.948 54.5992 235.517 53.0215 234.645 51.7058C233.628 50.1136 232.173 49.3196 230.288 49.3196C228.336 49.3196 226.854 50.1157 225.837 51.7058C224.965 53.0236 224.534 54.6262 224.534 56.5218C224.534 58.3614 224.965 59.939 225.837 61.2527C226.886 62.8449 228.352 63.6389 230.244 63.6389C232.098 63.6389 233.552 62.8282 234.602 61.2111C235.497 59.8704 235.948 58.2762 235.948 56.4387Z" fill="white"/>
<path d="M256.761 50.3835C256.281 50.3024 255.769 50.2608 255.231 50.2608C253.524 50.2608 252.203 50.8491 251.274 52.0276C250.466 53.0669 250.061 54.3806 250.061 55.9665V66.4321H245.209L245.255 52.7676C245.255 50.4687 245.193 48.3756 245.073 46.4882H249.3L249.478 50.3045H249.612C250.125 48.9929 250.933 47.937 252.039 47.145C253.121 46.4321 254.289 46.0767 255.548 46.0767C255.996 46.0767 256.402 46.1058 256.761 46.1577V50.3835Z" fill="white"/>
<path d="M278.47 55.5153C278.47 56.3093 278.413 56.9786 278.292 57.5252H263.73C263.787 59.4957 264.491 61.0027 265.843 62.042C267.07 62.9711 268.657 63.4367 270.606 63.4367C272.762 63.4367 274.729 63.1228 276.498 62.493L277.259 65.5693C275.191 66.3924 272.751 66.8019 269.934 66.8019C266.547 66.8019 263.887 65.8915 261.952 64.0727C260.022 62.254 259.054 59.8117 259.054 56.7479C259.054 53.7402 259.953 51.2355 261.754 49.238C263.639 47.1054 266.187 46.0391 269.393 46.0391C272.541 46.0391 274.925 47.1054 276.544 49.238C277.826 50.932 278.47 53.0272 278.47 55.5153ZM273.841 54.3658C273.873 53.0522 273.557 51.9173 272.899 50.959C272.059 49.7264 270.768 49.1112 269.031 49.1112C267.444 49.1112 266.153 49.7119 265.167 50.9175C264.359 51.8757 263.878 53.0251 263.73 54.3637H273.841V54.3658Z" fill="white"/>
</svg>
