<svg width="398" height="108" viewBox="0 0 398 108" fill="none" xmlns="http://www.w3.org/2000/svg">
<path d="M383.07 107.798H15.4978C7.41484 107.798 0.794861 101.754 0.794861 94.3746V13.8351C0.794861 6.45572 7.41484 0.411901 15.4978 0.411901H383.07C391.153 0.411901 397.773 6.45572 397.773 13.8351V94.3746C397.773 101.754 391.153 107.798 383.07 107.798Z" fill="black"/>
<path d="M383.07 2.56297C389.878 2.56297 395.417 7.62018 395.417 13.8351V94.3746C395.417 100.59 389.878 105.647 383.07 105.647H15.4978C8.69032 105.647 3.151 100.59 3.151 94.3746V13.8351C3.151 7.62018 8.69032 2.56297 15.4978 2.56297H383.07ZM383.07 0.411901H15.4978C7.41484 0.411901 0.794861 6.45572 0.794861 13.8351V94.3746C0.794861 101.754 7.41484 107.798 15.4978 107.798H383.07C391.153 107.798 397.773 101.754 397.773 94.3746V13.8351C397.773 6.45572 391.153 0.411901 383.07 0.411901Z" fill="#A6A6A6"/>
<path d="M29.2745 20.6501C28.4107 21.4757 27.9108 22.7609 27.9108 24.4254V83.7964C27.9108 85.4609 28.4107 86.7462 29.2745 87.5717L29.4877 87.7529L65.9288 54.4968V53.7116L29.4877 20.4555L29.2745 20.6501Z" fill="white"/>
<path d="M82.4731 65.5884L70.3395 54.4974V53.7122L82.4878 42.6212L82.7598 42.7655L97.1466 50.2389C101.252 52.3598 101.252 55.8498 97.1466 57.9841L82.7598 65.4441L82.4731 65.5884V65.5884Z" fill="white"/>
<path d="M80.5545 67.509L68.1342 56.1697L31.4799 89.6372C32.8436 90.9459 35.0674 91.1037 37.5963 89.7949L80.5545 67.509" fill="white"/>
<path d="M80.5545 40.6998L37.5963 18.4138C35.0674 17.1185 32.8436 17.2762 31.4799 18.585L68.1342 52.0391L80.5545 40.6998Z" fill="white"/>
<path d="M140.23 27.913C140.23 30.1547 139.495 31.9501 138.046 33.2891C136.381 34.8763 134.213 35.675 131.555 35.675C129.015 35.675 126.846 34.8629 125.067 33.2622C123.285 31.638 122.395 29.6446 122.395 27.2587C122.395 24.8727 123.285 22.8793 125.067 21.2685C126.846 19.6544 129.015 18.8423 131.555 18.8423C132.82 18.8423 134.025 19.0805 135.176 19.5235C136.323 19.9698 137.256 20.5739 137.932 21.3189L136.396 22.735C135.216 21.4632 133.61 20.8356 131.555 20.8356C129.703 20.8356 128.096 21.4263 126.733 22.6176C125.384 23.8122 124.707 25.3593 124.707 27.2587C124.707 29.158 125.384 30.7185 126.733 31.9132C128.096 33.0911 129.703 33.6951 131.555 33.6951C133.522 33.6951 135.176 33.0911 136.481 31.8997C137.341 31.1111 137.83 30.0238 137.958 28.6345H131.555V26.6949H140.097C140.2 27.1144 140.23 27.5204 140.23 27.913V27.913Z" fill="white" stroke="white" stroke-width="0.117623" stroke-miterlimit="10"/>
<path d="M153.782 21.188H145.758V26.2888H152.992V28.2285H145.758V33.3293H153.782V35.3059H143.486V19.2114H153.782V21.188Z" fill="white" stroke="white" stroke-width="0.117623" stroke-miterlimit="10"/>
<path d="M163.346 35.3059H161.075V21.188H156.153V19.2114H168.272V21.188H163.346V35.3059V35.3059Z" fill="white" stroke="white" stroke-width="0.117623" stroke-miterlimit="10"/>
<path d="M177.042 35.3059V19.2114H179.31V35.3059H177.042Z" fill="white" stroke="white" stroke-width="0.117623" stroke-miterlimit="10"/>
<path d="M189.363 35.3059H187.11V21.188H182.17V19.2114H194.303V21.188H189.363V35.3059Z" fill="white" stroke="white" stroke-width="0.117623" stroke-miterlimit="10"/>
<path d="M217.247 33.2354C215.509 34.8629 213.355 35.675 210.785 35.675C208.201 35.675 206.047 34.8629 204.309 33.2354C202.574 31.6111 201.71 29.6178 201.71 27.2587C201.71 24.8995 202.574 22.9062 204.309 21.282C206.047 19.6544 208.201 18.8423 210.785 18.8423C213.34 18.8423 215.494 19.6544 217.233 21.2954C218.982 22.933 219.846 24.9129 219.846 27.2587C219.846 29.6178 218.982 31.6111 217.247 33.2354ZM205.989 31.8863C207.297 33.0911 208.889 33.6951 210.785 33.6951C212.667 33.6951 214.274 33.0911 215.568 31.8863C216.872 30.6816 217.534 29.1346 217.534 27.2587C217.534 25.3828 216.872 23.8357 215.568 22.631C214.274 21.4263 212.667 20.8222 210.785 20.8222C208.889 20.8222 207.297 21.4263 205.989 22.631C204.684 23.8357 204.022 25.3828 204.022 27.2587C204.022 29.1346 204.684 30.6816 205.989 31.8863V31.8863Z" fill="white" stroke="white" stroke-width="0.117623" stroke-miterlimit="10"/>
<path d="M223.033 35.3059V19.2114H225.79L234.362 31.7286H234.461L234.362 28.6345V19.2114H236.629V35.3059H234.262L225.286 22.1713H225.187L225.286 25.2787V35.3059H223.033V35.3059Z" fill="white" stroke="white" stroke-width="0.117623" stroke-miterlimit="10"/>
<path d="M201.151 58.8101C194.245 58.8101 188.602 63.609 188.602 70.23C188.602 76.7973 194.245 81.6464 201.151 81.6464C208.073 81.6464 213.715 76.7973 213.715 70.23C213.715 63.609 208.073 58.8101 201.151 58.8101ZM201.151 77.1497C197.362 77.1497 194.101 74.2939 194.101 70.23C194.101 66.1124 197.362 63.3069 201.151 63.3069C204.941 63.3069 208.216 66.1124 208.216 70.23C208.216 74.2939 204.941 77.1497 201.151 77.1497V77.1497ZM173.771 58.8101C166.849 58.8101 161.222 63.609 161.222 70.23C161.222 76.7973 166.849 81.6464 173.771 81.6464C180.688 81.6464 186.32 76.7973 186.32 70.23C186.32 63.609 180.688 58.8101 173.771 58.8101ZM173.771 77.1497C169.977 77.1497 166.706 74.2939 166.706 70.23C166.706 66.1124 169.977 63.3069 173.771 63.3069C177.56 63.3069 180.821 66.1124 180.821 70.23C180.821 74.2939 177.56 77.1497 173.771 77.1497ZM141.189 62.3103V67.1628H153.881C153.51 69.8743 152.518 71.8676 150.996 73.2569C149.143 74.9348 146.258 76.7973 141.189 76.7973C133.378 76.7973 127.262 71.0421 127.262 63.911C127.262 56.7799 133.378 51.0247 141.189 51.0247C145.413 51.0247 148.485 52.5314 150.753 54.4845L154.499 51.0649C151.327 48.2997 147.107 46.1755 141.189 46.1755C130.478 46.1755 121.476 54.1322 121.476 63.911C121.476 73.6898 130.478 81.6464 141.189 81.6464C146.978 81.6464 151.327 79.9148 154.745 76.6664C158.248 73.4683 159.34 68.9715 159.34 65.3406C159.34 64.213 159.237 63.1761 159.053 62.3103H141.189ZM274.419 66.0721C273.387 63.5183 270.2 58.8101 263.708 58.8101C257.276 58.8101 251.92 63.4378 251.92 70.23C251.92 76.6261 257.221 81.6464 264.326 81.6464C270.071 81.6464 273.387 78.4483 274.75 76.5859L270.486 73.9918C269.064 75.8912 267.127 77.1497 264.326 77.1497C261.543 77.1497 259.547 75.9852 258.268 73.6898L274.997 67.3708L274.419 66.0721V66.0721ZM257.364 69.8743C257.221 65.4714 261.11 63.2163 263.896 63.2163C266.079 63.2163 267.932 64.213 268.549 65.6392L257.364 69.8743V69.8743ZM243.768 80.9518H249.266V47.3937H243.768V80.9518ZM234.762 61.3539H234.578C233.343 60.0182 230.987 58.8101 228.002 58.8101C221.739 58.8101 216.012 63.8304 216.012 70.2669C216.012 76.6664 221.739 81.6464 228.002 81.6464C230.987 81.6464 233.343 80.4283 234.578 79.0524H234.762V80.69C234.762 85.0559 232.207 87.4017 228.087 87.4017C224.727 87.4017 222.643 85.1868 221.783 83.3243L217.001 85.1465C218.379 88.1735 222.029 91.8984 228.087 91.8984C234.534 91.8984 239.974 88.4352 239.974 80.0088V59.5048H234.762V61.3539V61.3539ZM228.473 77.1497C224.683 77.1497 221.511 74.2536 221.511 70.2669C221.511 66.2433 224.683 63.3069 228.473 63.3069C232.207 63.3069 235.152 66.2433 235.152 70.2669C235.152 74.2536 232.207 77.1497 228.473 77.1497V77.1497ZM300.164 47.3937H287.012V80.9518H292.497V68.2366H300.164C306.255 68.2366 312.228 64.213 312.228 57.8135C312.228 51.4173 306.24 47.3937 300.164 47.3937V47.3937ZM300.308 63.5687H292.497V52.0616H300.308C304.402 52.0616 306.74 55.1657 306.74 57.8135C306.74 60.4109 304.402 63.5687 300.308 63.5687ZM334.209 58.7464C330.246 58.7464 326.126 60.3438 324.431 63.8841L329.298 65.7466C330.346 63.8841 332.272 63.2801 334.308 63.2801C337.153 63.2801 340.039 64.8405 340.083 67.5957V67.948C339.09 67.4245 336.966 66.6493 334.352 66.6493C329.111 66.6493 323.77 69.2836 323.77 74.1999C323.77 78.6967 328.063 81.5927 332.889 81.5927C336.58 81.5927 338.616 80.0726 339.895 78.3041H340.083V80.8981H345.379V68.0252C345.379 62.0754 340.513 58.7464 334.209 58.7464ZM333.547 77.1362C331.753 77.1362 329.254 76.3241 329.254 74.2939C329.254 71.6965 332.371 70.6998 335.069 70.6998C337.484 70.6998 338.616 71.1864 340.083 71.8273C339.653 74.9348 336.723 77.1362 333.547 77.1362V77.1362ZM364.677 59.4813L358.373 74.0287H358.186L351.669 59.4813H345.754L355.546 79.8108L349.959 91.1232H355.69L370.779 59.4813H364.677V59.4813ZM315.242 80.9518H320.741V47.3937H315.242V80.9518Z" fill="white"/>
</svg>
