<svg width="308" height="85" viewBox="0 0 308 85" fill="none" xmlns="http://www.w3.org/2000/svg">
<path d="M296.521 84.0918H11.9305C5.67235 84.0918 0.546875 79.4124 0.546875 73.6989V11.3418C0.546875 5.62831 5.67235 0.948925 11.9305 0.948925H296.521C302.779 0.948925 307.905 5.62831 307.905 11.3418V73.6989C307.905 79.4124 302.779 84.0918 296.521 84.0918Z" fill="black"/>
<path d="M296.521 2.61437C301.792 2.61437 306.081 6.52989 306.081 11.3418V73.6989C306.081 78.5108 301.792 82.4263 296.521 82.4263H11.9305C6.65988 82.4263 2.3711 78.5108 2.3711 73.6989V11.3418C2.3711 6.52989 6.65988 2.61437 11.9305 2.61437H296.521ZM296.521 0.948925H11.9305C5.67235 0.948925 0.546875 5.62831 0.546875 11.3418V73.6989C0.546875 79.4124 5.67235 84.0918 11.9305 84.0918H296.521C302.779 84.0918 307.905 79.4124 307.905 73.6989V11.3418C307.905 5.62831 302.779 0.948925 296.521 0.948925Z" fill="#A6A6A6"/>
<path d="M22.5971 16.6184C21.9283 17.2575 21.5413 18.2526 21.5413 19.5414V65.509C21.5413 66.7977 21.9283 67.7928 22.5971 68.432L22.7622 68.5723L50.9765 42.824V42.216L22.7622 16.4677L22.5971 16.6184Z" fill="white"/>
<path d="M63.7857 51.4116L54.3914 42.8245V42.2165L63.7971 33.6294L64.0077 33.7412L75.1466 39.5274C78.3254 41.1695 78.3254 43.8716 75.1466 45.5241L64.0077 51.2999L63.7857 51.4116Z" fill="white"/>
<path d="M62.3004 52.8986L52.6841 44.1192L24.3047 70.0312C25.3605 71.0445 27.0823 71.1666 29.0403 70.1533L62.3004 52.8986Z" fill="white"/>
<path d="M62.3004 32.142L29.0403 14.8873C27.0823 13.8844 25.3605 14.0065 24.3047 15.0198L52.6841 40.9214L62.3004 32.142Z" fill="white"/>
<path d="M108.503 22.2412C108.503 23.9768 107.934 25.3669 106.813 26.4036C105.524 27.6325 103.845 28.2509 101.787 28.2509C99.8205 28.2509 98.1415 27.6221 96.764 26.3828C95.3838 25.1253 94.6951 23.5819 94.6951 21.7346C94.6951 19.8873 95.3838 18.3439 96.764 17.0968C98.1415 15.847 99.8205 15.2183 101.787 15.2183C102.766 15.2183 103.7 15.4027 104.59 15.7457C105.478 16.0913 106.201 16.5589 106.725 17.1357L105.535 18.2322C104.622 17.2475 103.378 16.7616 101.787 16.7616C100.353 16.7616 99.1091 17.2189 98.0532 18.1413C97.0088 19.0662 96.4851 20.264 96.4851 21.7346C96.4851 23.2052 97.0088 24.4133 98.0532 25.3383C99.1091 26.2503 100.353 26.718 101.787 26.718C103.31 26.718 104.59 26.2503 105.601 25.3279C106.267 24.7173 106.645 23.8755 106.745 22.7999H101.787V21.2981H108.401C108.481 21.6229 108.503 21.9372 108.503 22.2412Z" fill="white" stroke="white" stroke-width="0.091069" stroke-miterlimit="10"/>
<path d="M118.996 17.0347H112.784V20.984H118.384V22.4858H112.784V26.4351H118.996V27.9654H111.025V15.5044H118.996V17.0347Z" fill="white" stroke="white" stroke-width="0.091069" stroke-miterlimit="10"/>
<path d="M126.401 27.9654H124.642V17.0347H120.832V15.5044H130.215V17.0347H126.401V27.9654Z" fill="white" stroke="white" stroke-width="0.091069" stroke-miterlimit="10"/>
<path d="M137.005 27.9654V15.5044H138.761V27.9654H137.005Z" fill="white" stroke="white" stroke-width="0.091069" stroke-miterlimit="10"/>
<path d="M146.545 27.9654H144.8V17.0347H140.975V15.5044H150.37V17.0347H146.545V27.9654Z" fill="white" stroke="white" stroke-width="0.091069" stroke-miterlimit="10"/>
<path d="M168.134 26.362C166.788 27.6221 165.12 28.2509 163.131 28.2509C161.13 28.2509 159.462 27.6221 158.116 26.362C156.773 25.1045 156.104 23.5611 156.104 21.7346C156.104 19.908 156.773 18.3647 158.116 17.1072C159.462 15.847 161.13 15.2183 163.131 15.2183C165.108 15.2183 166.776 15.847 168.122 17.1176C169.477 18.3855 170.146 19.9184 170.146 21.7346C170.146 23.5611 169.477 25.1045 168.134 26.362ZM159.417 25.3175C160.43 26.2503 161.662 26.718 163.131 26.718C164.588 26.718 165.831 26.2503 166.833 25.3175C167.843 24.3848 168.356 23.187 168.356 21.7346C168.356 20.2822 167.843 19.0844 166.833 18.1516C165.831 17.2189 164.588 16.7512 163.131 16.7512C161.662 16.7512 160.43 17.2189 159.417 18.1516C158.406 19.0844 157.894 20.2822 157.894 21.7346C157.894 23.187 158.406 24.3848 159.417 25.3175Z" fill="white" stroke="white" stroke-width="0.091069" stroke-miterlimit="10"/>
<path d="M172.613 27.9654V15.5044H174.748L181.384 25.1957H181.461L181.384 22.8002V15.5044H183.14V27.9654H181.307L174.358 17.796H174.281L174.358 20.202V27.9654H172.613Z" fill="white" stroke="white" stroke-width="0.091069" stroke-miterlimit="10"/>
<path d="M155.671 46.1633C150.324 46.1633 145.956 49.8788 145.956 55.0051C145.956 60.0898 150.324 63.8442 155.671 63.8442C161.03 63.8442 165.399 60.0898 165.399 55.0051C165.399 49.8788 161.03 46.1633 155.671 46.1633ZM155.671 60.3626C152.737 60.3626 150.213 58.1515 150.213 55.0051C150.213 51.8171 152.737 49.645 155.671 49.645C158.606 49.645 161.141 51.8171 161.141 55.0051C161.141 58.1515 158.606 60.3626 155.671 60.3626ZM134.472 46.1633C129.113 46.1633 124.756 49.8788 124.756 55.0051C124.756 60.0898 129.113 63.8442 134.472 63.8442C139.828 63.8442 144.188 60.0898 144.188 55.0051C144.188 49.8788 139.828 46.1633 134.472 46.1633ZM134.472 60.3626C131.535 60.3626 129.003 58.1515 129.003 55.0051C129.003 51.8171 131.535 49.645 134.472 49.645C137.406 49.645 139.931 51.8171 139.931 55.0051C139.931 58.1515 137.406 60.3626 134.472 60.3626ZM109.246 48.8733V52.6303H119.073C118.786 54.7297 118.017 56.273 116.839 57.3487C115.405 58.6478 113.171 60.0898 109.246 60.0898C103.199 60.0898 98.4631 55.6338 98.4631 50.1126C98.4631 44.5914 103.199 40.1355 109.246 40.1355C112.516 40.1355 114.895 41.3021 116.651 42.8143L119.551 40.1667C117.095 38.0257 113.828 36.3811 109.246 36.3811C100.953 36.3811 93.9836 42.5414 93.9836 50.1126C93.9836 57.6838 100.953 63.8442 109.246 63.8442C113.729 63.8442 117.095 62.5035 119.742 59.9884C122.454 57.5123 123.299 54.0307 123.299 51.2195C123.299 50.3465 123.22 49.5436 123.077 48.8733H109.246ZM212.399 51.7859C211.599 49.8086 209.132 46.1633 204.106 46.1633C199.126 46.1633 194.979 49.7463 194.979 55.0051C194.979 59.9573 199.083 63.8442 204.584 63.8442C209.032 63.8442 211.599 61.3681 212.655 59.9261L209.354 57.9177C208.252 59.3883 206.753 60.3626 204.584 60.3626C202.43 60.3626 200.884 59.461 199.894 57.6838L212.846 52.7914L212.399 51.7859ZM199.194 54.7297C199.083 51.3208 202.094 49.5748 204.251 49.5748C205.942 49.5748 207.376 50.3465 207.854 51.4507L199.194 54.7297ZM188.667 63.3064H192.924V37.3242H188.667V63.3064ZM181.694 48.1328H181.552C180.596 47.0987 178.772 46.1633 176.461 46.1633C171.611 46.1633 167.177 50.0503 167.177 55.0336C167.177 59.9884 171.611 63.8442 176.461 63.8442C178.772 63.8442 180.596 62.901 181.552 61.8358H181.694V63.1037C181.694 66.484 179.717 68.3001 176.526 68.3001C173.925 68.3001 172.312 66.5853 171.646 65.1433L167.943 66.5541C169.01 68.8977 171.836 71.7817 176.526 71.7817C181.518 71.7817 185.73 69.1004 185.73 62.5763V46.7012H181.694V48.1328ZM176.825 60.3626C173.891 60.3626 171.435 58.1203 171.435 55.0336C171.435 51.9184 173.891 49.645 176.825 49.645C179.717 49.645 181.996 51.9184 181.996 55.0336C181.996 58.1203 179.717 60.3626 176.825 60.3626ZM232.332 37.3242H222.149V63.3064H226.395V53.4617H232.332C237.047 53.4617 241.672 50.3465 241.672 45.3917C241.672 40.4395 237.036 37.3242 232.332 37.3242ZM232.443 49.8476H226.395V40.9383H232.443C235.613 40.9383 237.423 43.3417 237.423 45.3917C237.423 47.4027 235.613 49.8476 232.443 49.8476ZM258.69 46.114C255.623 46.114 252.432 47.3507 251.12 50.0918L254.888 51.5339C255.699 50.0918 257.191 49.6242 258.767 49.6242C260.97 49.6242 263.204 50.8323 263.238 52.9655V53.2383C262.47 52.833 260.825 52.2328 258.801 52.2328C254.743 52.2328 250.608 54.2724 250.608 58.0788C250.608 61.5604 253.932 63.8026 257.669 63.8026C260.526 63.8026 262.103 62.6256 263.093 61.2564H263.238V63.2648H267.339V53.298C267.339 48.6914 263.571 46.114 258.69 46.114ZM258.178 60.3522C256.789 60.3522 254.854 59.7234 254.854 58.1515C254.854 56.1405 257.267 55.3688 259.356 55.3688C261.226 55.3688 262.103 55.7456 263.238 56.2418C262.905 58.6478 260.637 60.3522 258.178 60.3522ZM282.28 46.683L277.399 57.9462H277.254L272.208 46.683H267.629L275.211 62.423L270.885 71.1816H275.322L287.004 46.683H282.28ZM244.006 63.3064H248.263V37.3242H244.006V63.3064Z" fill="white"/>
</svg>
