<svg width="68" height="68" viewBox="0 0 68 68" fill="none" xmlns="http://www.w3.org/2000/svg">
<mask id="mask0_3152_9158" style="mask-type:alpha" maskUnits="userSpaceOnUse" x="10" y="10" width="48" height="48">
<rect x="10.5289" y="10.2354" width="47.3686" height="47.3687" rx="12.9232" fill="#C4C4C4"/>
</mask>
<g mask="url(#mask0_3152_9158)">
<g filter="url(#filter0_f_3152_9158)">
<path d="M57.4631 20.0785C56.9368 20.4206 56.1868 20.7364 55.871 21.0916C55.7526 21.2101 55.6868 21.3416 55.7131 21.4732V22.8285L55.3184 24.1575L54.9237 25.4732L54.4894 26.9206L53.5947 29.8812L52.7263 32.8022L52.0684 34.9996C52.0684 35.3417 52.0552 35.6838 52.0289 36.0128C51.9368 37.2759 51.6736 38.4865 51.2526 39.6181C51.0026 40.3154 50.6999 40.9865 50.3315 41.6181C50.1999 41.8681 50.042 42.1181 49.8842 42.3549C49.3578 43.1839 48.7263 43.947 48.0289 44.6181C47.4894 45.1576 46.8973 45.6576 46.2526 46.0786C46.2526 46.0786 46.2526 46.0786 46.2394 46.0786C46.1341 46.1707 46.0157 46.2497 45.8841 46.3155C45.4762 46.5918 45.042 46.8286 44.5947 47.0392C44.292 47.197 43.9894 47.3286 43.6736 47.447C43.6078 47.4865 43.5289 47.5128 43.4631 47.5392C42.7131 47.8944 41.8446 48.1313 40.9762 48.2497C40.9236 48.2628 40.8841 48.2628 40.8315 48.276C40.3052 48.3681 39.792 48.4471 39.2657 48.4865C39.0288 48.5128 38.7788 48.526 38.542 48.526L37.6078 48.4734L33.1078 48.2365C33.1078 48.2234 33.0946 48.2365 33.0946 48.2365L30.8314 48.1181C30.6604 48.1181 30.4762 48.1181 30.3051 48.1049C29.5946 48.0786 28.9104 47.9997 28.2262 47.8549C28.213 47.8549 28.213 47.8549 28.213 47.8549C26.963 47.6181 25.7656 47.197 24.6472 46.6313C24.0288 46.3155 23.4235 45.9602 22.8577 45.5523C22.6209 45.3812 22.3972 45.197 22.1735 44.9997C21.5419 44.4733 20.9761 43.9076 20.4498 43.3286C20.3709 43.2497 20.3051 43.1707 20.2393 43.0918C20.1603 43.0128 20.0814 42.9207 20.0156 42.8418C19.5156 42.2102 19.0945 41.5654 18.7524 40.8812C18.4366 40.276 18.1866 39.6312 17.9893 38.9207C17.9103 38.6707 17.8445 38.4338 17.7919 38.1707C17.7787 38.1575 17.7656 38.1312 17.7656 38.1049C17.634 37.5654 17.5156 36.9996 17.4498 36.4338C17.3708 35.9996 17.3314 35.5654 17.3314 35.118C17.3051 34.947 17.3051 34.7628 17.3051 34.5917L19.8182 30.7101L22.2788 26.9206L23.3972 25.1969L24.4103 23.6443L24.7525 23.1048V21.7495C24.7788 21.4469 24.7919 21.1311 24.7788 20.8416C24.7656 19.9206 24.5814 19.0258 24.2788 18.1706C23.9893 17.2627 23.5814 16.4074 23.1603 15.6179C22.6603 14.71 22.134 13.8942 21.6998 13.1574C21.0551 12.0784 20.6077 11.1969 20.7261 10.5784C21.6735 10.3548 22.6735 10.2363 23.6867 10.2363L44.7394 10.2363C50.2394 10.2363 54.9763 13.6574 56.9368 18.4732C57.1473 18.9864 57.3316 19.5258 57.4631 20.0785Z" fill="#304FFE"/>
</g>
<g filter="url(#filter1_f_3152_9158)">
<path d="M57.8973 23.3943V23.7495L56.0815 24.8022L54.9236 25.4732L53.6472 26.2101L51.0946 27.6969L48.5946 29.1443L46.042 30.618L45.0288 31.2101C45.0288 31.8417 44.8709 32.4206 44.5814 32.9469C44.1735 33.7101 43.4893 34.3417 42.6209 34.8811C41.7393 35.4206 40.6603 35.8548 39.4498 36.1706C39.4498 36.1706 39.4498 36.1575 39.4367 36.1706C34.7524 37.3811 28.3577 36.8285 25.2524 34.5127C24.384 33.868 23.7787 33.0785 23.5155 32.1706C23.4366 31.868 23.3971 31.539 23.3971 31.2101V21.7495C23.4103 21.5522 23.2787 21.3548 23.0418 21.1574C22.3313 20.5916 20.6603 20.0521 18.7918 19.5127C17.3313 19.1048 15.7655 18.6969 14.4497 18.3021C13.4102 17.9864 12.5286 17.6706 12.0023 17.3679C12.2392 16.9074 12.5155 16.4469 12.805 16.0127C14.6471 13.3153 17.4629 11.3284 20.726 10.5784C21.6734 10.3547 22.6734 10.2363 23.6866 10.2363H37.8972C44.963 11.4732 51.4762 14.3548 56.9367 18.4732C57.1473 18.9864 57.3315 19.5258 57.4631 20.0785C57.6999 20.9469 57.8446 21.8416 57.8841 22.7758C57.8973 22.9732 57.8973 23.1837 57.8973 23.3943Z" fill="#4928F4"/>
</g>
<g filter="url(#filter2_f_3152_9158)">
<path d="M57.8973 23.3939V29.1966L57.6078 30.0913L56.6209 33.1571L55.5946 36.315L55.0551 37.9992L54.5551 39.565L54.0683 41.0519L53.5946 42.5256L53.3446 43.3019L53.0157 44.3282C53.0157 45.3282 52.9894 46.2098 52.9236 46.9598C52.9104 47.0388 52.8972 47.1177 52.8972 47.1967C52.8183 47.894 52.713 48.4861 52.542 48.9861C52.5288 49.0651 52.5025 49.144 52.4762 49.2098C52.1341 50.1572 51.6209 50.7625 50.8578 51.1572C50.6735 51.2625 50.463 51.3414 50.2393 51.4204C49.542 51.6572 48.6604 51.7756 47.5814 51.8414C46.792 51.894 45.8841 51.9072 44.8577 51.9072H43.9498L42.384 51.8414L42.1077 51.8283L39.2524 51.7098L36.3577 51.5914L26.8182 51.1967L24.3445 51.0914H24.0024C22.9761 51.0782 22.0945 51.0125 21.3313 50.9072C20.226 50.7361 19.3708 50.4467 18.726 50.0125C17.805 49.4203 17.2655 48.5519 16.9497 47.3414C16.8708 47.0519 16.805 46.7493 16.7655 46.4203C16.6339 45.6572 16.5681 44.7756 16.5287 43.7887C16.5287 43.5914 16.5287 43.394 16.5155 43.1835C16.5023 43.1703 16.5155 43.1703 16.5155 43.1703V42.4072C16.5023 42.0256 16.5023 41.6308 16.5023 41.2229L16.5681 39.1045L16.6076 37.5913L16.6602 35.8282V35.5782L16.7523 32.3413L16.8445 29.1045L16.9366 26.065L17.0155 23.0781L17.0418 22.2886C17.0418 21.8807 15.6602 21.6439 14.1208 21.4465C12.8971 21.2886 11.555 21.1439 10.7523 20.9597C10.8181 20.657 10.8839 20.3544 10.9628 20.0649C11.1997 19.1176 11.555 18.2228 12.0023 17.3675C12.2392 16.907 12.5155 16.4465 12.805 16.0123C15.6471 14.7623 18.6076 13.7886 21.6997 13.157C24.4103 12.5912 27.2392 12.2886 30.1603 12.2886C39.8446 12.2886 48.792 15.5649 55.8709 21.0913C56.5552 21.6176 57.2262 22.1834 57.8841 22.7755C57.8973 22.9728 57.8973 23.1834 57.8973 23.3939Z" fill="#6200EA"/>
</g>
<g filter="url(#filter3_f_3152_9158)">
<path d="M57.8976 26.5132V32.4869L57.1739 33.8816L55.7923 36.579L55.0555 38.0001L54.3844 39.3027L54.0949 39.8685C54.0949 40.2764 54.0949 40.6711 54.0686 41.0527C54.0686 41.6185 54.0423 42.158 54.0028 42.658C53.9502 43.2501 53.8712 43.7896 53.7923 44.2896C53.5949 45.3291 53.3186 46.2238 52.9239 46.9606C52.8712 47.0527 52.8186 47.1448 52.766 47.2238C52.6212 47.4606 52.4502 47.6843 52.266 47.8948C52.0291 48.1843 51.766 48.4343 51.4633 48.6449C51.016 48.987 50.4896 49.2633 49.8844 49.4738C49.1344 49.7501 48.2659 49.9343 47.2396 50.0396C46.5686 50.1054 45.8317 50.1449 45.0291 50.1449L44.4765 50.1712L41.7396 50.3291H41.7264L38.8185 50.5001L35.858 50.6712L31.779 50.908L26.8185 51.1975L26.0948 51.237C25.4237 51.237 24.7922 51.1975 24.1869 51.1185C24.1211 51.1054 24.0685 51.0922 24.0027 51.0922C23.1079 50.9475 22.2921 50.7106 21.5553 50.3817C20.6606 49.987 19.8842 49.4606 19.2263 48.8291C18.6474 48.2633 18.1474 47.6185 17.7395 46.8948C17.6474 46.7238 17.5553 46.5659 17.4763 46.3817C17.0816 45.6054 16.7658 44.7369 16.529 43.7896C16.4895 43.6317 16.45 43.4606 16.4237 43.2896C16.3447 42.9869 16.279 42.6711 16.2395 42.3422C16.0947 41.5001 16.0158 40.6053 15.9763 39.6711V39.658C15.9632 39.2764 15.95 38.908 15.95 38.5132L15.3053 36.9738L15.2132 36.7369L15.1342 36.5395L14.1474 34.1843L13.9895 33.8027L13.0421 31.5264L11.9895 28.9869C11.9895 28.9869 11.9895 28.9869 11.9763 28.9869L10.9105 26.4211L10.5289 25.4869V23.3947C10.5289 22.5658 10.6079 21.75 10.7526 20.9605C10.8184 20.6579 10.8842 20.3553 10.9631 20.0658C12.0816 19.421 13.2526 18.8289 14.45 18.3026C17.1869 17.0789 20.1211 16.171 23.1606 15.6184C25.4237 15.2105 27.779 14.9868 30.1606 14.9868C39.7791 14.9868 48.5028 18.4737 55.3186 24.1579C55.5818 24.3684 55.8318 24.579 56.0818 24.8026C56.7002 25.3421 57.3055 25.9079 57.8976 26.5132Z" fill="#673AB7"/>
</g>
<g filter="url(#filter4_f_3152_9158)">
<path d="M57.8976 30.4337V37.1969L57.1476 38.7627L55.7265 41.7232L55.7134 41.7627C55.7134 42.3285 55.687 42.8416 55.6476 43.3022C55.516 44.8153 55.1476 45.7759 54.5423 46.368C54.1081 46.8153 53.5686 47.0653 52.8976 47.1969C52.8581 47.2101 52.8054 47.2101 52.766 47.2232C52.5554 47.2627 52.3318 47.289 52.0949 47.289C51.2791 47.368 50.3186 47.3153 49.2133 47.2364C49.0949 47.2364 48.9633 47.2232 48.8317 47.2101C48.0291 47.1575 47.1738 47.1048 46.2265 47.0654C45.7133 47.0522 45.1738 47.039 44.6212 47.039H44.5949L43.2659 47.1443H43.2528L40.2659 47.3548L36.858 47.618L36.358 47.6575L32.3711 47.9469L30.3053 48.1048L28.2659 48.2496C27.9106 48.2496 27.5685 48.2496 27.2264 48.2364C27.2264 48.2364 27.2132 48.2233 27.2132 48.2364C25.7264 48.2101 24.3974 48.118 23.2132 47.8943C22.1211 47.7101 21.1606 47.4206 20.3448 46.9864C19.5027 46.5785 18.8053 45.9996 18.2395 45.2627C17.7 44.539 17.3053 43.6311 17.0553 42.539C17.0553 42.5259 17.0553 42.5259 17.0553 42.5259C16.8711 41.6443 16.7658 40.6179 16.7658 39.46L16.5684 39.1048L15.3974 37.0127L15.2263 36.7232L15.1342 36.539L13.9105 34.3679L13.3053 33.2758L12.5421 31.9205L11.2263 29.5653L10.5289 28.3284V23.4863C11.6868 22.7231 12.8842 22.0521 14.1211 21.4468C15.6211 20.6836 17.1737 20.0389 18.7921 19.5126C20.5553 18.9336 22.3974 18.4731 24.279 18.1705C26.1869 17.8547 28.1474 17.6968 30.1606 17.6968C39.108 17.6968 47.3186 20.8942 53.6476 26.21C53.937 26.4337 54.2133 26.6837 54.4897 26.9205C55.5949 27.9074 56.6476 28.9732 57.6081 30.0916C57.7134 30.21 57.8186 30.3153 57.8976 30.4337Z" fill="#8E24AA"/>
</g>
<g filter="url(#filter5_f_3152_9158)">
<path d="M57.8976 34.8556V44.3688C57.5818 44.1846 57.1476 43.9609 56.6081 43.7241C56.3186 43.5794 55.9897 43.4346 55.6476 43.303C55.1476 43.0794 54.6081 42.8688 54.0028 42.6583C53.8712 42.6057 53.7397 42.5662 53.5949 42.5267C53.3581 42.4346 53.1081 42.3557 52.8581 42.2767C52.0818 42.0399 51.2265 41.8162 50.3317 41.6188C49.9896 41.553 49.6344 41.4872 49.2791 41.4346C48.1344 41.2372 46.9107 41.1188 45.6344 41.1057C45.5291 41.0925 45.4107 41.0925 45.3054 41.0925L41.9238 41.1188L37.3185 41.1451H37.3054L27.4501 41.2241C24.3185 41.2241 22.3974 41.9741 21.2395 42.2767C21.2395 42.2767 21.2263 42.2767 21.2263 42.2899C20.0027 42.6057 19.6211 42.4083 19.5158 40.2636C19.4895 39.6714 19.4763 38.9083 19.4763 37.9741L18.7395 37.4083L17.45 36.4346L16.6605 35.8293L16.5026 35.7109L14.3184 34.053L13.9895 33.803L13.3053 33.2767L12.0421 32.3293L10.5289 31.1714L10.5289 26.6977C10.6605 26.5924 10.7789 26.5003 10.9105 26.4214C12.8184 25.1056 14.8579 23.9871 17.0158 23.0792C18.9369 22.2635 20.9632 21.6187 23.0421 21.1582C23.6079 21.0398 24.1869 20.9213 24.779 20.8424C26.529 20.5398 28.3316 20.395 30.1606 20.395C38.0685 20.395 45.3317 23.145 51.0949 27.6977C51.9633 28.3819 52.8054 29.1056 53.5949 29.8819C54.6739 30.9082 55.687 32.0003 56.6212 33.1582C56.8055 33.3951 56.9897 33.6319 57.1739 33.8819C57.4239 34.1977 57.6607 34.5267 57.8976 34.8556Z" fill="#C2185B"/>
</g>
<g filter="url(#filter6_f_3152_9158)">
<path d="M57.897 40.1314V44.4472C57.897 45.3025 57.818 46.1446 57.6601 46.9604C57.4233 48.1709 57.0154 49.3288 56.4627 50.4077C56.1733 50.4735 55.8443 50.4735 55.4759 50.4209C54.6469 50.2762 53.6733 49.8419 52.6206 49.2762C52.568 49.263 52.5154 49.2367 52.4759 49.2104C52.1469 49.0393 51.8048 48.8551 51.4627 48.6446C50.7654 48.263 50.0285 47.8419 49.2917 47.4472C49.1338 47.3683 48.9759 47.2893 48.8311 47.2104C47.989 46.7761 47.1206 46.3814 46.2522 46.0788C46.2522 46.0788 46.2522 46.0788 46.239 46.0788C46.0548 46.013 45.8574 45.9472 45.6601 45.8946C44.9101 45.684 44.1469 45.5525 43.4101 45.5525L41.9627 45.1314L35.5548 43.2761C35.5548 43.2761 35.5548 43.2761 35.5416 43.2761L31.6074 42.1314H31.5942L29.8837 41.6314C24.9363 41.6314 21.8968 43.7367 20.4231 42.934C19.8442 42.6314 19.502 41.8682 19.3836 40.3682C19.3442 39.9472 19.331 39.4735 19.331 38.9208L17.7915 38.1708L17.7257 38.1445H17.7126L16.6073 37.5919L15.3968 37.0129L15.3047 36.9735L15.081 36.855L12.502 35.605L10.5283 34.6445L10.5283 30.1313C10.752 29.934 10.9888 29.7498 11.2257 29.5655C11.4757 29.3682 11.7257 29.184 11.9757 28.9866C11.9889 28.9866 11.9889 28.9866 11.9889 28.9866C13.5415 27.8682 15.1862 26.8813 16.9362 26.0655C18.9757 25.0918 21.1468 24.3418 23.3968 23.855C23.7257 23.776 24.0679 23.6971 24.41 23.6445C26.2784 23.2892 28.1995 23.105 30.16 23.105C37.0942 23.105 43.4627 25.355 48.5943 29.1445C50.0811 30.2498 51.4627 31.4734 52.7259 32.8024C53.7654 33.8945 54.7259 35.0787 55.5943 36.3156C55.6601 36.4077 55.7259 36.4998 55.7917 36.5787C56.2785 37.2893 56.7259 38.0129 57.147 38.763C57.4233 39.2103 57.6601 39.6708 57.897 40.1314Z" fill="#D81B60"/>
</g>
<g filter="url(#filter7_f_3152_9158)">
<path d="M57.6607 46.9588C57.4239 48.1693 57.016 49.3272 56.4633 50.4062C56.2133 50.893 55.937 51.3535 55.6344 51.8009C55.4502 52.0772 55.2528 52.3404 55.0554 52.5904C54.5818 52.4062 53.8844 52.143 53.0291 51.8535C53.0291 51.8535 53.0291 51.8535 53.0291 51.8404C52.3844 51.6167 51.6475 51.3798 50.8581 51.1562C50.6344 51.0904 50.4107 51.0246 50.1738 50.9588C49.2396 50.7088 48.2659 50.4851 47.3186 50.3535C46.5291 50.222 45.7528 50.143 45.0291 50.143L44.4238 49.9719H44.4107L41.2264 49.0509L39.2659 48.4851L37.0817 47.8535H37.0685L36.358 47.6561L27.7659 45.1825L25.2922 44.4719L23.45 44.0377L20.45 43.3272L20.0816 43.2351C20.0816 43.2351 20.0816 43.2351 20.0684 43.2351L17.0553 42.5377C17.0553 42.5245 17.0553 42.5245 17.0553 42.5245L16.5158 42.4061L16.2395 42.3403L14.0421 41.8272L13.7921 41.7614L11.9237 40.2219L10.5289 39.0508L10.5289 33.6824C11.0158 33.2087 11.5158 32.7613 12.0421 32.3271C12.2 32.1824 12.371 32.0508 12.5421 31.9192C12.7 31.7877 12.871 31.6561 13.0421 31.5245C14.2395 30.6166 15.5026 29.8008 16.8447 29.1034C18.5553 28.1824 20.3711 27.4455 22.279 26.9192C22.6474 26.8008 23.0158 26.6955 23.3974 26.6166C25.5553 26.0771 27.8185 25.8008 30.1606 25.8008C36.0422 25.8008 41.5159 27.5771 46.0423 30.6166C48.2923 32.1298 50.3186 33.9456 52.0291 36.0114C52.8975 37.0508 53.687 38.1429 54.3844 39.3008C54.4502 39.393 54.5028 39.4719 54.5554 39.564C54.9765 40.2614 55.3712 40.9851 55.7265 41.7219C56.0555 42.3798 56.3449 43.0377 56.6081 43.7219C57.0291 44.7746 57.3712 45.8535 57.6607 46.9588Z" fill="#F50057"/>
</g>
<g filter="url(#filter8_f_3152_9158)">
<path d="M55.6338 51.8028C55.4496 52.0791 55.2522 52.3422 55.0548 52.5922C54.4759 53.3159 53.8443 53.9738 53.1338 54.5528C52.5154 55.0659 51.8575 55.5265 51.1601 55.9212C50.8969 55.8554 50.6338 55.7765 50.3574 55.6712C49.489 55.3686 48.5811 54.8686 47.739 54.3422C46.4758 53.5396 45.3837 52.6712 44.8969 52.2764C44.7127 52.1186 44.6206 52.0396 44.6206 52.0396L42.3837 51.8422L42.1074 51.8159L39.2127 51.5659L36.2126 51.3028L31.7784 50.908L24.7521 50.2896L24.7258 50.2764L22.2521 49.0791L19.752 47.8685L17.7389 46.8948L17.3047 46.6843L16.7652 46.4212L14.8968 45.5133L12.4099 44.3159L11.6336 43.9343L10.5283 43.5922L10.5283 37.7106C11.1467 36.9737 11.8046 36.2764 12.502 35.6053C12.9494 35.1843 13.4231 34.7632 13.9099 34.3685C13.9889 34.3027 14.0678 34.2369 14.1468 34.1843C14.1994 34.1185 14.2652 34.079 14.3178 34.0527C15.0941 33.4211 15.9099 32.8553 16.752 32.3421C17.7257 31.7237 18.752 31.1711 19.8178 30.7106C20.9626 30.1974 22.16 29.7632 23.3968 29.4342C25.5415 28.829 27.8179 28.5132 30.16 28.5132C35.5284 28.5132 40.489 30.1448 44.5811 32.9474C47.1995 34.7369 49.4627 37.0001 51.2522 39.6185C51.8443 40.4606 52.3706 41.3553 52.8575 42.2764C53.0285 42.6185 53.1996 42.9606 53.3443 43.3027C53.5022 43.6317 53.6469 43.9606 53.7917 44.2896C54.068 44.9738 54.318 45.658 54.5417 46.3685C54.9627 47.6843 55.2785 49.0264 55.4759 50.4212C55.5417 50.8817 55.5943 51.3422 55.6338 51.8028Z" fill="#FF1744"/>
</g>
<g filter="url(#filter9_f_3152_9158)">
<path d="M53.1476 54.2105C53.1476 54.3158 53.1476 54.4342 53.1344 54.5527C52.516 55.0658 51.8581 55.5263 51.1607 55.9211C50.8712 56.079 50.5817 56.2369 50.2791 56.3685C49.9765 56.5132 49.6739 56.6448 49.3581 56.7632C48.9107 56.5264 48.3054 56.2369 47.6607 55.9606C46.7528 55.5527 45.7659 55.1842 45.0028 55.0658C44.8186 55.0263 44.6475 55.0132 44.4896 55.0132L42.3317 54.7369H42.3054L39.6212 54.3816L36.9106 54.0263L35.6475 53.8684L25.7001 52.579C25.0553 52.579 24.3711 52.5395 23.6606 52.4474C22.7921 52.3684 21.8842 52.2369 20.9763 52.0526C20.0816 51.8947 19.1737 51.6842 18.3053 51.4605C17.3974 51.25 16.5026 51 15.6737 50.7632C14.7132 50.4737 13.8184 50.1974 13.0684 49.9474C12.45 49.75 11.9237 49.5658 11.5158 49.4211C11.2789 48.8553 11.0816 48.2632 10.9368 47.6579C10.6605 46.6316 10.5289 45.5526 10.5289 44.4473V42.25C10.95 41.5526 11.4105 40.8684 11.9237 40.2236C12.8579 38.9868 13.9237 37.8552 15.0816 36.8552C15.1211 36.8026 15.1737 36.7631 15.2132 36.7368L15.2263 36.7236C15.6342 36.3552 16.0553 36.0263 16.5026 35.7105C16.5553 35.6578 16.6079 35.6184 16.6605 35.5789C16.8711 35.421 17.0948 35.2631 17.3316 35.1184C19.2132 33.842 21.2921 32.842 23.5158 32.171C25.6211 31.5394 27.8448 31.2104 30.1606 31.2104C34.7527 31.2104 39.0422 32.5657 42.6212 34.8815C45.2659 36.5789 47.5423 38.8157 49.2791 41.4342C49.4896 41.7368 49.687 42.0394 49.8844 42.3552C50.7923 43.8947 51.5423 45.5526 52.0949 47.2895C52.1607 47.4868 52.2133 47.6842 52.266 47.8947C52.3712 48.25 52.4633 48.6184 52.5423 48.9868C52.5686 49.0789 52.5949 49.1711 52.6212 49.2763C52.8054 50.1053 52.937 50.9737 53.0291 51.8421C53.0291 51.8553 53.0291 51.8553 53.0291 51.8553C53.1081 52.6316 53.1476 53.4211 53.1476 54.2105Z" fill="#FF5722"/>
</g>
<g filter="url(#filter10_f_3152_9158)">
<path d="M50.436 54.21C50.436 54.6705 50.4097 55.1705 50.357 55.6705C50.3307 55.9074 50.3044 56.1442 50.2781 56.3679C49.9754 56.5126 49.6728 56.6442 49.357 56.7626C48.7649 56.9863 48.1596 57.1705 47.5412 57.3021C47.1202 57.3942 46.686 57.4732 46.2517 57.5126H46.2386C45.8307 57.2626 45.357 56.96 44.8702 56.6179C43.9886 55.9995 43.0675 55.3021 42.3307 54.7363C42.3175 54.7231 42.3175 54.7231 42.3044 54.71C41.528 54.1179 40.9754 53.6705 40.9754 53.6705L39.5807 53.7231L36.8964 53.8152L35.6464 53.8679L30.6201 54.0521L26.3701 54.21C26.0938 54.2231 25.7648 54.2231 25.3569 54.21H25.3438C24.7911 54.1968 24.1332 54.1574 23.4095 54.0916C22.5674 54.0258 21.6464 53.9468 20.7122 53.8547C19.8043 53.7495 18.8832 53.6442 18.0016 53.5389C17.0279 53.4337 16.1069 53.3152 15.3174 53.21C14.699 53.131 14.1595 53.0652 13.7253 53.0126C13.3569 52.5916 13.0279 52.1573 12.7121 51.6837C12.2384 50.9731 11.8305 50.2231 11.5147 49.4205C11.2779 48.8547 11.0805 48.2626 10.9358 47.6573C11.3174 46.4863 11.8174 45.381 12.4095 44.3152C12.8832 43.4468 13.4358 42.6178 14.0411 41.8283C14.6332 41.052 15.2779 40.3283 15.9753 39.6704V39.6573C16.1727 39.4599 16.37 39.2757 16.5674 39.1046C16.9358 38.7625 17.3174 38.4467 17.7121 38.1441H17.7253C17.7385 38.1178 17.7516 38.1178 17.7648 38.1046C18.0806 37.8546 18.4095 37.631 18.7385 37.4073C20.6858 36.0783 22.8832 35.0915 25.2516 34.5125C26.8174 34.1309 28.4622 33.9204 30.1596 33.9204C33.5017 33.9204 36.6596 34.723 39.4359 36.1704H39.4491C41.8307 37.3941 43.9359 39.0783 45.6333 41.1047C46.5675 42.1836 47.3702 43.3678 48.0281 44.6178C48.4886 45.4599 48.8833 46.3415 49.2123 47.2363C49.2386 47.3152 49.2649 47.381 49.2912 47.4468C49.5149 48.1047 49.7123 48.7889 49.8833 49.4731C50.0018 49.96 50.0939 50.46 50.1728 50.96C50.1991 51.1179 50.2254 51.2626 50.2386 51.4205C50.3702 52.3284 50.436 53.2626 50.436 54.21Z" fill="#FF6F00"/>
</g>
<g filter="url(#filter11_f_3152_9158)">
<path d="M47.7389 54.2079V54.3395C47.7389 54.7869 47.6994 55.3527 47.6599 55.9579C47.6205 56.4053 47.581 56.8658 47.5415 57.3C47.1205 57.3922 46.6862 57.4711 46.252 57.5106H46.2389C45.7389 57.5764 45.252 57.6027 44.7389 57.6027H42.4362L41.9362 57.4579L39.3441 56.6685L36.7125 55.879L30.6204 54.05L27.9888 53.2606C27.9888 53.2606 26.8967 53.6948 25.3572 54.2079H25.344C24.7519 54.4053 24.1072 54.6158 23.423 54.8264C22.5677 55.0764 21.6598 55.3264 20.7651 55.5237C19.844 55.7342 18.9361 55.8921 18.1203 55.9579C17.8703 55.9843 17.6203 55.9974 17.3966 55.9974C16.6598 55.5895 15.9493 55.1027 15.3045 54.5632C14.7387 54.0895 14.2124 53.5763 13.7256 53.0106C13.3571 52.5895 13.0282 52.1553 12.7124 51.6816C12.8045 51.0895 12.9098 50.5105 13.0677 49.9448C13.4624 48.379 14.0808 46.879 14.8966 45.5105C15.344 44.7342 15.844 43.9842 16.4229 43.2868C16.4361 43.2474 16.4756 43.2079 16.5151 43.1816C16.5019 43.1684 16.5151 43.1684 16.5151 43.1684C16.6861 42.9447 16.8703 42.7342 17.0545 42.5368C17.0545 42.5237 17.0545 42.5237 17.0545 42.5237C17.594 41.9447 18.1466 41.3921 18.7519 40.8789C18.9624 40.7079 19.1598 40.5368 19.3835 40.3658C19.423 40.3263 19.4624 40.3 19.5151 40.2605C22.4756 37.9973 26.173 36.6289 30.1598 36.6289C34.6862 36.6289 38.8046 38.3263 41.9231 41.1158C43.4231 42.471 44.6994 44.0895 45.6599 45.8921C45.7389 46.0237 45.8178 46.1684 45.8836 46.3132C46.002 46.55 46.1204 46.8 46.2257 47.0632C46.6599 48.0105 47.002 49.0105 47.2389 50.0369C47.2652 50.1421 47.2915 50.2474 47.3178 50.3527C47.4231 50.8395 47.5152 51.3395 47.581 51.8395C47.6862 52.6158 47.7389 53.4053 47.7389 54.2079Z" fill="#FF9800"/>
</g>
<g filter="url(#filter12_f_3152_9158)">
<path d="M45.0288 54.2088C45.0288 54.472 45.0157 54.7614 45.0025 55.0641C44.9762 55.5509 44.9367 56.0772 44.8709 56.6167C44.8446 56.9457 44.792 57.2746 44.7393 57.6035H37.5288L36.134 57.3799L30.6867 56.5114L29.9103 56.393L28.134 56.1035C27.3577 56.1035 25.6735 56.4456 23.8971 56.7746C22.9629 56.9456 22.0156 57.1299 21.1603 57.2483C21.055 57.2614 20.9498 57.2746 20.8577 57.2878H20.8445C19.9234 57.0904 19.0287 56.7878 18.1866 56.393C17.9234 56.2746 17.6603 56.143 17.3971 55.9983C16.6603 55.5904 15.9497 55.1035 15.305 54.5641C15.2918 54.4062 15.2787 54.2746 15.2787 54.2088C15.2787 53.8667 15.2918 53.5377 15.3182 53.2088C15.3708 52.3667 15.4892 51.5509 15.6734 50.7614C15.9629 49.564 16.384 48.4061 16.9497 47.3403C17.055 47.1167 17.1734 46.893 17.305 46.6824C17.3576 46.5772 17.4234 46.4851 17.4761 46.3798C17.7129 45.9982 17.9761 45.6298 18.2392 45.2614C18.7919 44.5377 19.4103 43.8535 20.0682 43.2351C20.0813 43.2351 20.0813 43.2351 20.0813 43.2351C20.134 43.1824 20.1866 43.1298 20.2392 43.0903C20.305 43.0377 20.3577 42.9719 20.4234 42.9324C20.6866 42.6956 20.9498 42.4851 21.2261 42.2877C21.2261 42.2745 21.2392 42.2745 21.2392 42.2745C23.7261 40.4193 26.8051 39.3271 30.1603 39.3271C32.7656 39.3271 35.1867 39.985 37.3051 41.1429H37.3183C39.1341 42.1429 40.713 43.4982 41.963 45.1298C42.4499 45.7614 42.8841 46.4324 43.2525 47.143H43.2657C43.3314 47.2746 43.3972 47.4061 43.463 47.5377C43.8578 48.314 44.1736 49.1298 44.4104 49.9719H44.4236C44.4367 50.0377 44.463 50.1035 44.4762 50.1693C44.6341 50.7351 44.7657 51.314 44.8578 51.9062C44.8709 52.0246 44.8841 52.1562 44.8972 52.2746C44.9893 52.9062 45.0288 53.5509 45.0288 54.2088Z" fill="#FFC107"/>
</g>
<g filter="url(#filter13_f_3152_9158)">
<path d="M42.3315 54.0649C42.3315 54.2755 42.3315 54.4992 42.3052 54.7097V54.7228C42.3052 54.736 42.3052 54.736 42.3052 54.736C42.2788 55.6834 42.1473 56.6176 41.9367 57.4597C41.9367 57.5123 41.9236 57.5518 41.8973 57.6044H35.7525L30.6867 56.5123L30.0156 56.3676L29.9104 56.3939L24.2919 57.5518L24.0419 57.6044H23.6867C22.8445 57.6044 22.0156 57.5255 21.213 57.3676C21.0945 57.3413 20.9761 57.315 20.8577 57.2886H20.8445C19.9235 57.0913 19.0287 56.7886 18.1866 56.3939C18.1603 56.2492 18.134 56.1044 18.1208 55.9597C18.0287 55.3939 17.9893 54.8018 17.9893 54.2097C17.9893 53.986 17.9893 53.7623 18.0024 53.5386C18.0419 52.8281 18.1472 52.1307 18.305 51.4597C18.4103 50.9597 18.555 50.4728 18.7261 50.0123C18.8708 49.6044 19.0419 49.2097 19.2261 48.8281C19.384 48.4991 19.5682 48.1833 19.7524 47.8675C19.9366 47.5649 20.134 47.2754 20.3445 46.986C20.8708 46.2623 21.4893 45.5912 22.1735 44.9991C22.5682 44.657 23.0024 44.3281 23.4498 44.0386C25.3709 42.7754 27.6735 42.0386 30.1604 42.0386C30.6472 42.0386 31.1209 42.0649 31.5814 42.1307H31.6077C33.0156 42.2886 34.3314 42.6833 35.542 43.2754C35.5551 43.2754 35.5551 43.2754 35.5551 43.2754C37.463 44.2096 39.0815 45.6175 40.2657 47.3544C40.463 47.6439 40.6604 47.9597 40.8315 48.2754C40.9762 48.5254 41.1078 48.7886 41.2262 49.0518C41.4104 49.4597 41.5815 49.8939 41.7262 50.3281H41.7394C41.8841 50.8149 42.0157 51.3018 42.1078 51.8149V51.8281C42.2525 52.5518 42.3315 53.3018 42.3315 54.0649Z" fill="#FFD54F"/>
</g>
<g filter="url(#filter14_f_3152_9158)">
<path d="M39.6207 54.3419V54.3814C39.6207 55.1577 39.5286 55.9209 39.3444 56.6709C39.2786 56.9867 39.1865 57.3024 39.0681 57.6051H33.1733L30.1601 56.7761L27.147 57.6051H23.6864C22.8443 57.6051 22.0154 57.5261 21.2127 57.3682C21.1864 57.3288 21.1732 57.2893 21.1601 57.2498C20.9759 56.684 20.8311 56.1182 20.7653 55.5261C20.7127 55.1445 20.6864 54.7498 20.6864 54.3419C20.6864 54.184 20.6864 54.013 20.7127 53.8551C20.7259 53.2366 20.818 52.6314 20.9759 52.0524C21.0548 51.6577 21.1732 51.2761 21.3311 50.9077C21.3838 50.7235 21.4627 50.5524 21.5548 50.3813C21.7522 49.934 21.989 49.4998 22.2522 49.0787C22.5417 48.6577 22.8575 48.2629 23.2127 47.8945C23.6338 47.4208 24.1075 46.9866 24.6469 46.6313C25.568 45.9603 26.6206 45.4603 27.7654 45.184C28.5285 44.9734 29.3312 44.8682 30.1601 44.8682C32.7917 44.8682 35.147 45.9208 36.8575 47.6182C36.9233 47.684 37.0023 47.7629 37.0681 47.855H37.0812C37.2654 48.0524 37.4365 48.2498 37.6075 48.4734C38.0944 49.0919 38.5023 49.7629 38.8181 50.4998C38.976 50.8419 39.1075 51.1971 39.2128 51.5656C39.226 51.6182 39.2391 51.6577 39.2523 51.7103C39.4365 52.355 39.5549 53.0261 39.5812 53.7235C39.6075 53.9208 39.6207 54.1314 39.6207 54.3419Z" fill="#FFE082"/>
</g>
<g filter="url(#filter15_f_3152_9158)">
<path d="M36.9233 54.3398C36.9233 54.8793 36.8576 55.3925 36.7128 55.8793C36.5812 56.4056 36.3839 56.9057 36.1339 57.3793C36.0944 57.4583 36.0023 57.603 36.0023 57.603H24.318C24.3049 57.5899 24.2917 57.5635 24.2917 57.5504C24.1338 57.3004 24.0022 57.0504 23.897 56.7741C23.6338 56.1688 23.4759 55.5109 23.4233 54.8267C23.397 54.6688 23.397 54.4977 23.397 54.3398C23.397 54.2609 23.397 54.1688 23.4101 54.0898C23.4233 53.5109 23.5022 52.9583 23.6601 52.4451C23.7917 51.9714 23.9628 51.5372 24.1864 51.1161C24.1864 51.1161 24.1996 51.103 24.1996 51.0898C24.3575 50.8135 24.5286 50.5372 24.7259 50.274C25.3707 49.4056 26.2259 48.6951 27.2128 48.2346C27.2259 48.2346 27.2259 48.2346 27.2259 48.2346C27.5417 48.0767 27.8707 47.9451 28.2128 47.853C28.2128 47.853 28.2128 47.853 28.2259 47.853C28.8312 47.6688 29.4891 47.5767 30.1602 47.5767C30.9365 47.5767 31.6865 47.6951 32.3707 47.9451C32.6207 48.0109 32.8575 48.1161 33.0944 48.2346C33.0944 48.2346 33.0944 48.2346 33.1075 48.2346C34.2391 48.774 35.1997 49.6161 35.8576 50.6688C35.9891 50.8661 36.1076 51.0767 36.2128 51.3004C36.2655 51.3925 36.3181 51.4977 36.3576 51.5898C36.6602 52.274 36.8444 53.024 36.897 53.8135C36.9102 53.8793 36.9102 53.9451 36.9102 54.0241C36.9233 54.1293 36.9233 54.2346 36.9233 54.3398Z" fill="#FFECB3"/>
</g>
<path d="M42.1069 16.8159L26.3174 16.8159C21.1858 16.8159 17.1068 20.8949 17.1068 26.0265L17.1068 41.816C17.1068 46.9476 21.1858 51.0266 26.3174 51.0266H42.1069C47.2385 51.0266 51.3175 46.9476 51.3175 41.816V26.0265C51.3175 20.8949 47.2385 16.8159 42.1069 16.8159Z" stroke="white" stroke-width="2.76926" stroke-miterlimit="10" stroke-linecap="round" stroke-linejoin="round"/>
<path d="M43.4682 25.2087C44.3703 25.2087 45.1016 24.4774 45.1016 23.5753C45.1016 22.6732 44.3703 21.9419 43.4682 21.9419C42.5661 21.9419 41.8348 22.6732 41.8348 23.5753C41.8348 24.4774 42.5661 25.2087 43.4682 25.2087Z" fill="white"/>
<path d="M34.2128 41.8169C38.5729 41.8169 42.1075 38.2823 42.1075 33.9221C42.1075 29.562 38.5729 26.0273 34.2128 26.0273C29.8526 26.0273 26.318 29.562 26.318 33.9221C26.318 38.2823 29.8526 41.8169 34.2128 41.8169Z" stroke="white" stroke-width="2.76926" stroke-miterlimit="10" stroke-linecap="round" stroke-linejoin="round"/>
</g>
<rect x="5.59746" y="5.30449" width="57.2313" height="57.2313" rx="19.3848" stroke="white" stroke-width="9.23085"/>
<defs>
<filter id="filter0_f_3152_9158" x="-1.15665" y="-8.22538" width="77.0815" height="75.213" filterUnits="userSpaceOnUse" color-interpolation-filters="sRGB">
<feFlood flood-opacity="0" result="BackgroundImageFix"/>
<feBlend mode="normal" in="SourceGraphic" in2="BackgroundImageFix" result="shape"/>
<feGaussianBlur stdDeviation="9.23085" result="effect1_foregroundBlur_3152_9158"/>
</filter>
<filter id="filter1_f_3152_9158" x="-6.45939" y="-8.22538" width="82.8183" height="63.481" filterUnits="userSpaceOnUse" color-interpolation-filters="sRGB">
<feFlood flood-opacity="0" result="BackgroundImageFix"/>
<feBlend mode="normal" in="SourceGraphic" in2="BackgroundImageFix" result="shape"/>
<feGaussianBlur stdDeviation="9.23085" result="effect1_foregroundBlur_3152_9158"/>
</filter>
<filter id="filter2_f_3152_9158" x="-7.70939" y="-6.17313" width="84.0683" height="76.5421" filterUnits="userSpaceOnUse" color-interpolation-filters="sRGB">
<feFlood flood-opacity="0" result="BackgroundImageFix"/>
<feBlend mode="normal" in="SourceGraphic" in2="BackgroundImageFix" result="shape"/>
<feGaussianBlur stdDeviation="9.23085" result="effect1_foregroundBlur_3152_9158"/>
</filter>
<filter id="filter3_f_3152_9158" x="-7.93278" y="-3.47489" width="84.2921" height="73.1734" filterUnits="userSpaceOnUse" color-interpolation-filters="sRGB">
<feFlood flood-opacity="0" result="BackgroundImageFix"/>
<feBlend mode="normal" in="SourceGraphic" in2="BackgroundImageFix" result="shape"/>
<feGaussianBlur stdDeviation="9.23085" result="effect1_foregroundBlur_3152_9158"/>
</filter>
<filter id="filter4_f_3152_9158" x="-7.93278" y="-0.764931" width="84.2921" height="67.4762" filterUnits="userSpaceOnUse" color-interpolation-filters="sRGB">
<feFlood flood-opacity="0" result="BackgroundImageFix"/>
<feBlend mode="normal" in="SourceGraphic" in2="BackgroundImageFix" result="shape"/>
<feGaussianBlur stdDeviation="9.23085" result="effect1_foregroundBlur_3152_9158"/>
</filter>
<filter id="filter5_f_3152_9158" x="-7.93278" y="1.93331" width="84.2921" height="60.897" filterUnits="userSpaceOnUse" color-interpolation-filters="sRGB">
<feFlood flood-opacity="0" result="BackgroundImageFix"/>
<feBlend mode="normal" in="SourceGraphic" in2="BackgroundImageFix" result="shape"/>
<feGaussianBlur stdDeviation="9.23085" result="effect1_foregroundBlur_3152_9158"/>
</filter>
<filter id="filter6_f_3152_9158" x="-7.93339" y="4.64327" width="84.2921" height="64.2774" filterUnits="userSpaceOnUse" color-interpolation-filters="sRGB">
<feFlood flood-opacity="0" result="BackgroundImageFix"/>
<feBlend mode="normal" in="SourceGraphic" in2="BackgroundImageFix" result="shape"/>
<feGaussianBlur stdDeviation="9.23085" result="effect1_foregroundBlur_3152_9158"/>
</filter>
<filter id="filter7_f_3152_9158" x="-7.93278" y="7.33907" width="84.0553" height="63.713" filterUnits="userSpaceOnUse" color-interpolation-filters="sRGB">
<feFlood flood-opacity="0" result="BackgroundImageFix"/>
<feBlend mode="normal" in="SourceGraphic" in2="BackgroundImageFix" result="shape"/>
<feGaussianBlur stdDeviation="9.23085" result="effect1_foregroundBlur_3152_9158"/>
</filter>
<filter id="filter8_f_3152_9158" x="-7.93339" y="10.0515" width="82.0289" height="64.3316" filterUnits="userSpaceOnUse" color-interpolation-filters="sRGB">
<feFlood flood-opacity="0" result="BackgroundImageFix"/>
<feBlend mode="normal" in="SourceGraphic" in2="BackgroundImageFix" result="shape"/>
<feGaussianBlur stdDeviation="9.23085" result="effect1_foregroundBlur_3152_9158"/>
</filter>
<filter id="filter9_f_3152_9158" x="-7.93278" y="12.7487" width="79.5421" height="62.4762" filterUnits="userSpaceOnUse" color-interpolation-filters="sRGB">
<feFlood flood-opacity="0" result="BackgroundImageFix"/>
<feBlend mode="normal" in="SourceGraphic" in2="BackgroundImageFix" result="shape"/>
<feGaussianBlur stdDeviation="9.23085" result="effect1_foregroundBlur_3152_9158"/>
</filter>
<filter id="filter10_f_3152_9158" x="-7.52592" y="15.4587" width="76.4237" height="60.5157" filterUnits="userSpaceOnUse" color-interpolation-filters="sRGB">
<feFlood flood-opacity="0" result="BackgroundImageFix"/>
<feBlend mode="normal" in="SourceGraphic" in2="BackgroundImageFix" result="shape"/>
<feGaussianBlur stdDeviation="9.23085" result="effect1_foregroundBlur_3152_9158"/>
</filter>
<filter id="filter11_f_3152_9158" x="-5.74931" y="18.1672" width="71.9499" height="57.897" filterUnits="userSpaceOnUse" color-interpolation-filters="sRGB">
<feFlood flood-opacity="0" result="BackgroundImageFix"/>
<feBlend mode="normal" in="SourceGraphic" in2="BackgroundImageFix" result="shape"/>
<feGaussianBlur stdDeviation="9.23085" result="effect1_foregroundBlur_3152_9158"/>
</filter>
<filter id="filter12_f_3152_9158" x="-3.18302" y="20.8654" width="66.6735" height="55.1998" filterUnits="userSpaceOnUse" color-interpolation-filters="sRGB">
<feFlood flood-opacity="0" result="BackgroundImageFix"/>
<feBlend mode="normal" in="SourceGraphic" in2="BackgroundImageFix" result="shape"/>
<feGaussianBlur stdDeviation="9.23085" result="effect1_foregroundBlur_3152_9158"/>
</filter>
<filter id="filter13_f_3152_9158" x="-0.47245" y="23.5769" width="61.2656" height="52.4893" filterUnits="userSpaceOnUse" color-interpolation-filters="sRGB">
<feFlood flood-opacity="0" result="BackgroundImageFix"/>
<feBlend mode="normal" in="SourceGraphic" in2="BackgroundImageFix" result="shape"/>
<feGaussianBlur stdDeviation="9.23085" result="effect1_foregroundBlur_3152_9158"/>
</filter>
<filter id="filter14_f_3152_9158" x="2.22469" y="26.4065" width="55.8577" height="49.6602" filterUnits="userSpaceOnUse" color-interpolation-filters="sRGB">
<feFlood flood-opacity="0" result="BackgroundImageFix"/>
<feBlend mode="normal" in="SourceGraphic" in2="BackgroundImageFix" result="shape"/>
<feGaussianBlur stdDeviation="9.23085" result="effect1_foregroundBlur_3152_9158"/>
</filter>
<filter id="filter15_f_3152_9158" x="4.93526" y="29.115" width="50.4498" height="46.9498" filterUnits="userSpaceOnUse" color-interpolation-filters="sRGB">
<feFlood flood-opacity="0" result="BackgroundImageFix"/>
<feBlend mode="normal" in="SourceGraphic" in2="BackgroundImageFix" result="shape"/>
<feGaussianBlur stdDeviation="9.23085" result="effect1_foregroundBlur_3152_9158"/>
</filter>
</defs>
</svg>
