<svg width="61" height="61" viewBox="0 0 61 61" fill="none" xmlns="http://www.w3.org/2000/svg">
<g clip-path="url(#clip0_3152_9157)">
<path d="M12.4961 19.9924L13.822 18.6665L12.4961 19.9924ZM7.67375 15.17L6.34791 16.4958L7.67375 15.17ZM27.6739 50.7953C26.6384 50.7953 25.7989 51.6348 25.7989 52.6703C25.7989 53.7059 26.6384 54.5453 27.6739 54.5453V50.7953ZM52.7869 47.5176L51.27 46.4155V46.4155L52.7869 47.5176ZM50.0215 50.283L48.9193 48.7661L50.0215 50.283ZM50.0215 10.0572L51.1236 8.54031V8.54031L50.0215 10.0572ZM52.7869 12.8227L51.27 13.9248V13.9248L52.7869 12.8227ZM10.3265 10.0572L9.22435 8.54031L9.22435 8.54031L10.3265 10.0572ZM3.29871 30.1701C3.29871 31.2057 4.13819 32.0451 5.17373 32.0451C6.20927 32.0451 7.04875 31.2057 7.04875 30.1701H3.29871ZM7.56104 12.8227L6.04412 11.7205V11.7205L7.56104 12.8227ZM2.67371 45.7953C1.63816 45.7953 0.798689 46.6347 0.798689 47.6703C0.798689 48.7058 1.63816 49.5453 2.67371 49.5453V45.7953ZM17.6738 49.5453C18.7094 49.5453 19.5489 48.7058 19.5489 47.6703C19.5489 46.6347 18.7094 45.7953 17.6738 45.7953V49.5453ZM2.67371 38.2952C1.63816 38.2952 0.798689 39.1347 0.798689 40.1702C0.798689 41.2058 1.63816 42.0452 2.67371 42.0452V38.2952ZM10.1738 42.0452C11.2093 42.0452 12.0488 41.2058 12.0488 40.1702C12.0488 39.1347 11.2093 38.2952 10.1738 38.2952V42.0452ZM6.72632 14.2226L5.03717 13.4086L6.72632 14.2226ZM13.822 18.6665L9.3029 14.1475L6.65122 16.7991L11.1703 21.3182L13.822 18.6665ZM51.045 14.1475L46.526 18.6665L49.1776 21.3182L53.6967 16.7991L51.045 14.1475ZM11.1703 21.3182C15.2995 25.4474 18.527 28.6805 21.3811 30.8581C24.2784 33.0687 27.0103 34.3675 30.174 34.3675V30.6175C28.1599 30.6175 26.2196 29.8329 23.6558 27.8768C21.0487 25.8877 18.0261 22.8707 13.822 18.6665L11.1703 21.3182ZM46.526 18.6665C42.3218 22.8707 39.2992 25.8877 36.6921 27.8768C34.1284 29.8329 32.188 30.6175 30.174 30.6175V34.3675C33.3376 34.3675 36.0695 33.0687 38.9668 30.8581C41.8209 28.6805 45.0484 25.4474 49.1776 21.3182L46.526 18.6665ZM13.822 18.6665L8.99959 13.8442L6.34791 16.4958L11.1703 21.3182L13.822 18.6665ZM51.3483 13.8442L46.526 18.6665L49.1776 21.3182L54 16.4958L51.3483 13.8442ZM27.6739 9.54494H32.674V5.7949H27.6739V9.54494ZM32.674 50.7953H27.6739V54.5453H32.674V50.7953ZM53.2992 30.1701C53.2992 34.8991 53.2966 38.2952 53.0117 40.9251C52.7305 43.5199 52.1927 45.1455 51.27 46.4155L54.3038 48.6197C55.7684 46.6039 56.4242 44.2429 56.7399 41.329C57.0518 38.4503 57.0492 34.8156 57.0492 30.1701H53.2992ZM32.674 54.5453C37.3194 54.5453 40.9541 54.5479 43.8329 54.236C46.7468 53.9203 49.1077 53.2645 51.1236 51.7999L48.9193 48.7661C47.6493 49.6888 46.0238 50.2267 43.429 50.5078C40.7991 50.7927 37.403 50.7953 32.674 50.7953V54.5453ZM51.27 46.4155C50.6146 47.3175 49.8214 48.1108 48.9193 48.7661L51.1236 51.7999C52.3439 50.9133 53.4172 49.8401 54.3038 48.6197L51.27 46.4155ZM32.674 9.54494C37.403 9.54494 40.7991 9.54751 43.429 9.83244C46.0238 10.1136 47.6493 10.6514 48.9193 11.5742L51.1236 8.54031C49.1077 7.07573 46.7468 6.41993 43.8329 6.10423C40.9541 5.79233 37.3194 5.7949 32.674 5.7949V9.54494ZM48.9193 11.5742C49.8214 12.2295 50.6146 13.0227 51.27 13.9248L54.3038 11.7205C53.4171 10.5002 52.3439 9.42696 51.1236 8.54031L48.9193 11.5742ZM27.6739 5.7949C23.0285 5.7949 19.3938 5.79233 16.515 6.10423C13.6012 6.41993 11.2402 7.07573 9.22435 8.54031L11.4286 11.5742C12.6986 10.6514 14.3241 10.1136 16.9189 9.83244C19.5488 9.54751 22.945 9.54494 27.6739 9.54494V5.7949ZM9.22435 8.54031C8.00398 9.42696 6.93077 10.5002 6.04412 11.7205L9.07796 13.9248C9.73331 13.0227 10.5266 12.2295 11.4286 11.5742L9.22435 8.54031ZM2.67371 49.5453H17.6738V45.7953H2.67371V49.5453ZM2.67371 42.0452H10.1738V38.2952H2.67371V42.0452ZM7.04875 30.1701C7.04875 26.0822 7.04996 22.9824 7.23749 20.5001C7.42468 18.0223 7.78844 16.3377 8.41546 15.0365L5.03717 13.4086C4.1116 15.3295 3.69907 17.5577 3.49811 20.2176C3.29749 22.8732 3.29871 26.1362 3.29871 30.1701H7.04875ZM8.41546 15.0365C8.60745 14.638 8.82657 14.2708 9.07796 13.9248L6.04412 11.7205C5.65759 12.2526 5.32402 12.8133 5.03717 13.4086L8.41546 15.0365ZM8.99959 13.8442L8.05215 12.8967L5.40048 15.5484L6.34791 16.4958L8.99959 13.8442ZM57.0492 30.1701C57.0492 26.1362 57.0504 22.8732 56.8498 20.2176C56.6488 17.5577 56.2363 15.3295 55.3107 13.4086L51.9325 15.0365C52.5595 16.3377 52.9232 18.0223 53.1104 20.5001C53.298 22.9824 53.2992 26.0822 53.2992 30.1701H57.0492ZM55.3107 13.4086C55.0239 12.8133 54.6903 12.2526 54.3038 11.7205L51.27 13.9248C51.5213 14.2708 51.7405 14.638 51.9325 15.0365L55.3107 13.4086ZM54 16.4958L54.9474 15.5484L52.2958 12.8967L51.3483 13.8442L54 16.4958Z" fill="#2D264B"/>
</g>
<defs>
<clipPath id="clip0_3152_9157">
<rect width="60.0005" height="60.0005" fill="white" transform="translate(0.173706 0.169922)"/>
</clipPath>
</defs>
</svg>
