<svg width="73" height="73" viewBox="0 0 73 73" fill="none" xmlns="http://www.w3.org/2000/svg">
<path fill-rule="evenodd" clip-rule="evenodd" d="M36.7441 70.066C54.1412 70.066 68.2444 55.9628 68.2444 38.5657C68.2444 21.1686 54.1412 7.06543 36.7441 7.06543C19.3469 7.06543 5.24377 21.1686 5.24377 38.5657C5.24377 44.2152 6.73103 49.5174 9.33538 54.102L5.24377 70.066L21.7024 66.2495C26.1721 68.6832 31.2966 70.066 36.7441 70.066ZM36.7441 65.2198C51.4647 65.2198 63.3982 53.2864 63.3982 38.5657C63.3982 23.8451 51.4647 11.9116 36.7441 11.9116C22.0234 11.9116 10.09 23.8451 10.09 38.5657C10.09 44.2494 11.869 49.5176 14.9005 53.8438L12.5131 62.7967L21.6238 60.519C25.92 63.4837 31.1293 65.2198 36.7441 65.2198Z" fill="#BFC8D0"/>
<path d="M63.7451 36.3142C63.7451 51.226 51.6567 63.3145 36.7449 63.3145C31.0572 63.3145 25.7803 61.5558 21.4282 58.5526L12.1992 60.8599L14.6176 51.7908C11.5467 47.4083 9.74463 42.0717 9.74463 36.3142C9.74463 21.4024 21.833 9.31396 36.7449 9.31396C51.6567 9.31396 63.7451 21.4024 63.7451 36.3142Z" fill="url(#paint0_linear_3152_9155)"/>
<path fill-rule="evenodd" clip-rule="evenodd" d="M36.7441 67.815C54.1412 67.815 68.2444 53.7119 68.2444 36.3147C68.2444 18.9176 54.1412 4.81445 36.7441 4.81445C19.3469 4.81445 5.24377 18.9176 5.24377 36.3147C5.24377 41.9643 6.73103 47.2664 9.33538 51.8511L5.24377 67.815L21.7024 63.9985C26.1721 66.4323 31.2966 67.815 36.7441 67.815ZM36.7441 62.9688C51.4647 62.9688 63.3982 51.0354 63.3982 36.3147C63.3982 21.5941 51.4647 9.66065 36.7441 9.66065C22.0234 9.66065 10.09 21.5941 10.09 36.3147C10.09 41.9984 11.869 47.2666 14.9005 51.5929L12.5131 60.5457L21.6238 58.2681C25.92 61.2327 31.1293 62.9688 36.7441 62.9688Z" fill="white"/>
<path d="M28.8695 21.6906C28.1206 20.1862 26.9716 20.3194 25.811 20.3194C23.7366 20.3194 20.5022 22.8041 20.5022 27.4283C20.5022 31.218 22.1722 35.3665 27.7994 41.5723C33.2301 47.5613 40.3657 50.6594 46.2896 50.5539C52.2134 50.4485 53.4322 45.3508 53.4322 43.6292C53.4322 42.8662 52.9587 42.4855 52.6325 42.382C50.6138 41.4132 46.8906 39.608 46.0435 39.2689C45.1963 38.9297 44.754 39.3885 44.479 39.638C43.7108 40.3701 42.1879 42.5278 41.6665 43.0131C41.1451 43.4983 40.3677 43.2527 40.0442 43.0693C38.8538 42.5916 35.6261 41.1559 33.0533 38.6619C29.8714 35.5774 29.6847 34.5162 29.0852 33.5716C28.6057 32.8159 28.9576 32.3523 29.1332 32.1496C29.8187 31.3586 30.7653 30.1374 31.1898 29.5305C31.6144 28.9236 31.2774 28.0022 31.0751 27.4283C30.2055 24.9601 29.4687 22.894 28.8695 21.6906Z" fill="white"/>
<defs>
<linearGradient id="paint0_linear_3152_9155" x1="60.3701" y1="16.064" x2="9.74463" y2="63.3144" gradientUnits="userSpaceOnUse">
<stop stop-color="#5BD066"/>
<stop offset="1" stop-color="#27B43E"/>
</linearGradient>
</defs>
</svg>
